<svg xmlns="http://www.w3.org/2000/svg" viewBox="0 0 92 92"><defs><style>.a{fill:#fcc24c;}.a,.b{stroke:#fe8657;stroke-linecap:round;stroke-linejoin:round;stroke-width:2px;}.b{fill:none;fill-rule:evenodd;}</style></defs><g transform="translate(-5 -4)"><g transform="translate(6 5)"><rect class="a" width="90" height="90"/><path class="b" d="M0,19.1S13.776,9,26.633,9s33.061,8.265,44.082,8.265S90,16.347,90,16.347" transform="translate(0 7.531)"/><path class="b" d="M.5,33.173s22.041,5.51,37.653,5.51S55.6,29.5,66.622,29.5s22.959,3.673,22.959,3.673" transform="translate(0.418 24.684)"/><path class="b" d="M21.249,0S8.391,22.959,14.82,37.653,24,65.2,23.085,74.388A43.052,43.052,0,0,1,18.493,90" transform="translate(10.894)"/><path class="b" d="M36.59,0s-6.429,24.8-1.837,37.653,5.51,28.469,3.673,36.735A25.927,25.927,0,0,0,40.264,90" transform="translate(27.696)"/></g></g></svg>