<svg xmlns="http://www.w3.org/2000/svg" viewBox="0 0 82 96"><defs><style>.a{fill:none;}.a,.b{stroke:#456782;stroke-linecap:round;stroke-linejoin:round;stroke-width:2px;fill-rule:evenodd;}.b{fill:#3babb7;}</style></defs><g transform="translate(-10 -6)"><g transform="translate(11 7)"><path class="a" d="M80,52.947c-4.271-1.527-12.385-4.31-20.715-6.532L58.116,37H21.873L20.7,46.415c-8.327,2.221-16.437,5-20.7,6.529" transform="translate(0 41.053)"/><path class="b" d="M29.941,3.011C19.023,4.591,10.66,13.509,10.66,24.274a20.548,20.548,0,0,0,.191,2.8A48.829,48.829,0,0,0,9.493,38.587a3.487,3.487,0,0,0-3.458,4.006l1.195,8.556a3.476,3.476,0,0,0,4.722,2.788A35.522,35.522,0,0,0,18.488,65.7V78.053H48.336V65.7A35.49,35.49,0,0,0,54.851,54a3.507,3.507,0,0,0,4.769-2.81l1.2-8.63a3.517,3.517,0,0,0-3.494-4.04,48.814,48.814,0,0,0-1.358-11.444,20.549,20.549,0,0,0,.191-2.8A21.277,21.277,0,0,0,45.317,5.939C45.738,2.993,45.51,0,42.843,0,39,0,32.923,1.96,29.941,3.011Z" transform="translate(6.575 0)"/></g></g></svg>