<svg xmlns="http://www.w3.org/2000/svg" xmlns:xlink="http://www.w3.org/1999/xlink" viewBox="0 0 204 483"><defs><style>.a{fill:url(#a);}</style><linearGradient id="a" x1="0.5" x2="0.5" y2="1" gradientUnits="objectBoundingBox"><stop offset="0" stop-color="#7f7cf1"/><stop offset="1" stop-color="#3e3ea2"/></linearGradient></defs><path class="a" d="M127.235-71.3H151.97v26.591H127.235V-.524H94.026V-44.706H8.066L7.109-64.888,92.933-199.07h34.3Zm-85.277,0H94.026v-82.909l-2.46,4.364Zm271.7-12.818q0,42.818-16.058,64.568T248.746,2.2q-32.252,0-48.583-21.2T183.422-81.8v-34.364q0-42.818,16.058-64.227T248.473-201.8q32.662,0,48.72,20.864t16.468,62.455Zm-33.209-37.091q0-27.955-7.653-40.977t-24.326-13.023q-16.263,0-23.916,12.341t-8.063,38.523v45q0,27.818,7.79,41.455t24.462,13.636q15.989,0,23.642-12.614t8.063-39.477ZM465.374-71.3h24.736v26.591H465.374V-.524H432.165V-44.706h-85.96l-.957-20.182L431.072-199.07h34.3Zm-85.277,0h52.068v-82.909l-2.46,4.364Z" transform="translate(2.203 -7.109) rotate(90)"/></svg>