<svg xmlns="http://www.w3.org/2000/svg" xmlns:xlink="http://www.w3.org/1999/xlink" viewBox="0 0 203.801 463.703"><defs><style>.a{fill:url(#a);}</style><linearGradient id="a" x1="0.5" x2="0.5" y2="1" gradientUnits="objectBoundingBox"><stop offset="0" stop-color="#7f7cf1"/><stop offset="1" stop-color="#3e3ea2"/></linearGradient></defs><path class="a" d="M-214.154-98.358l10.762-99.993H-96.86v28.608h-79.014l-5.449,47.408a61.241,61.241,0,0,1,31.061-7.9q28.336,0,44.071,18.119t15.735,48.771q0,30.243-17.437,48.157T-155.711,2.725q-27.246,0-45.16-15.462t-19.413-40.8h32.014q1.907,14.44,10.354,22.137t22.069,7.7q15.258,0,23.772-10.9t8.514-29.7q0-18.119-9.4-28.677t-25.884-10.558a43.061,43.061,0,0,0-15.258,2.384q-6.267,2.384-13.623,9.332Zm289,14.849q0,42.776-16.007,64.505T10.136,2.725q-32.15,0-48.43-21.184T-54.982-81.193v-34.33q0-42.776,16.007-64.165T9.864-201.076q32.559,0,48.566,20.843t16.416,62.394Zm-33.1-37.055q0-27.927-7.629-40.937T9.864-174.511q-16.211,0-23.84,12.329T-22.014-123.7v44.956q0,27.791,7.765,41.414T10.136-23.7q15.939,0,23.568-12.6t8.038-39.439ZM243.418-83.509q0,42.776-16.007,64.505t-48.7,21.729q-32.15,0-48.43-21.184T113.59-81.193v-34.33q0-42.776,16.007-64.165t48.839-21.388q32.559,0,48.566,20.843t16.416,62.394Zm-33.1-37.055q0-27.927-7.629-40.937t-24.249-13.01q-16.211,0-23.84,12.329T146.558-123.7v44.956q0,27.791,7.765,41.414T178.708-23.7q15.939,0,23.568-12.6t8.038-39.439Z" transform="translate(2.725 220.285) rotate(90)"/></svg>