<svg xmlns="http://www.w3.org/2000/svg" viewBox="0 0 29 29"><defs><style>.a,.b{fill:none;}.b{stroke:#3e3ea2;stroke-linecap:round;stroke-linejoin:round;stroke-width:1.5px;}.c,.d{stroke:none;}.d{fill:#3e3ea2;}</style></defs><g transform="translate(-1824 -1669)"><g class="a" transform="translate(1824 1669)"><path class="c" d="M14.5,0A14.5,14.5,0,1,1,0,14.5,14.5,14.5,0,0,1,14.5,0Z"/><path class="d" d="M 14.5 28 C 18.10597991943359 28 21.49612998962402 26.59576034545898 24.04594039916992 24.04594039916992 C 26.59576034545898 21.49612998962402 28 18.10597991943359 28 14.5 C 28 10.89402008056641 26.59576034545898 7.503870010375977 24.04594039916992 4.954060077667236 C 21.49612998962402 2.404239892959595 18.10597991943359 1 14.5 1 C 10.89402008056641 1 7.503870010375977 2.404239892959595 4.954060077667236 4.954060077667236 C 2.404239892959595 7.503870010375977 1 10.89402008056641 1 14.5 C 1 18.10597991943359 2.404239892959595 21.49612998962402 4.954060077667236 24.04594039916992 C 7.503870010375977 26.59576034545898 10.89402008056641 28 14.5 28 M 14.5 29 C 6.491869926452637 29 -1.77635683940025e-15 22.50812911987305 -1.77635683940025e-15 14.5 C -1.77635683940025e-15 6.491869926452637 6.491869926452637 -1.77635683940025e-15 14.5 -1.77635683940025e-15 C 22.50812911987305 -1.77635683940025e-15 29 6.491869926452637 29 14.5 C 29 22.50812911987305 22.50812911987305 29 14.5 29 Z"/></g><g transform="translate(1828 1673)"><line class="b" y2="11" transform="translate(10.5 5)"/><line class="b" x2="11" transform="translate(5 10.5)"/></g></g></svg>