<svg xmlns="http://www.w3.org/2000/svg" viewBox="0 0 51 51"><defs><style>.a{opacity:0.7;}.b{fill:#6c9baa;}.c{fill:#c8e6eb;}.d{fill:#ffb40e;}.e{fill:#414b82;}</style></defs><g class="a"><path class="b" d="M120,190.8v13.6h11.05v3.4H128.5a3.4,3.4,0,0,0-3.4,3.4h15.3a3.4,3.4,0,0,0-3.4-3.4h-2.55v-3.4H145.5V184H120Zm3.4-3.4h18.7V201H123.4V187.4Z" transform="translate(-107.25 -164.45)"/><path class="c" d="M152,226.2v3.4h18.7V216H152v10.2Z" transform="translate(-135.85 -193.05)"/><g transform="translate(0.85 0.85)"><circle class="d" cx="2.55" cy="2.55" r="2.55" transform="translate(44.2)"/><circle class="d" cx="2.55" cy="2.55" r="2.55" transform="translate(44.2 26.35)"/><circle class="d" cx="2.55" cy="2.55" r="2.55" transform="translate(44.2 44.2)"/><circle class="d" cx="2.55" cy="2.55" r="2.55"/><circle class="d" cx="2.55" cy="2.55" r="2.55" transform="translate(0 26.35)"/><circle class="d" cx="2.55" cy="2.55" r="2.55" transform="translate(0 44.2)"/></g><path class="e" d="M128,18.2a4.25,4.25,0,0,0,4.25,4.25h15.3a4.242,4.242,0,0,0,.673-8.432,2.539,2.539,0,0,0-3.709-3.081,5.1,5.1,0,0,0-9.262,4.256A4.249,4.249,0,0,0,128,18.2Z" transform="translate(-114.4 -7.15)"/><path class="b" d="M41.65,27.2a.85.85,0,0,0,.85-.85V4.25h1.821a3.4,3.4,0,1,0,0-1.7H41.65a.85.85,0,0,0-.85.85V25.5H39.1V19.55a.85.85,0,0,0-.85-.85H12.75a.85.85,0,0,0-.85.85V25.5H10.2V3.4a.85.85,0,0,0-.85-.85H6.679a3.4,3.4,0,1,0,0,1.7H8.5v22.1a.85.85,0,0,0,.85.85H11.9v1.7H6.679a3.4,3.4,0,1,0,0,1.7H11.9v1.7H9.35a.85.85,0,0,0-.85.85v13.6H6.679a3.4,3.4,0,1,0,0,1.7H9.35a.85.85,0,0,0,.85-.85V34h1.7v5.95a.85.85,0,0,0,.85.85h10.2v1.7h-1.7A4.255,4.255,0,0,0,17,46.75a.85.85,0,0,0,.85.85h15.3a.85.85,0,0,0,.85-.85,4.255,4.255,0,0,0-4.25-4.25h-1.7V40.8h10.2a.85.85,0,0,0,.85-.85V34h1.7V47.6a.85.85,0,0,0,.85.85h2.671a3.4,3.4,0,1,0,0-1.7H42.5V33.15a.85.85,0,0,0-.85-.85H39.1V30.6h5.221a3.4,3.4,0,1,0,0-1.7H39.1V27.2ZM47.6,1.7a1.7,1.7,0,1,1-1.7,1.7A1.7,1.7,0,0,1,47.6,1.7ZM3.4,5.1A1.7,1.7,0,1,1,5.1,3.4,1.7,1.7,0,0,1,3.4,5.1Zm0,26.35a1.7,1.7,0,1,1,1.7-1.7A1.7,1.7,0,0,1,3.4,31.45Zm0,17.85a1.7,1.7,0,1,1,1.7-1.7A1.7,1.7,0,0,1,3.4,49.3Zm44.2-3.4a1.7,1.7,0,1,1-1.7,1.7A1.7,1.7,0,0,1,47.6,45.9Zm0-17.85a1.7,1.7,0,1,1-1.7,1.7A1.7,1.7,0,0,1,47.6,28.05Zm-34-7.65H37.4v5.1H35.7V22.95a.85.85,0,0,0-.85-.85H16.15a.85.85,0,0,0-.85.85V25.5H13.6ZM34,27.2v1.7H28.9v1.7H34v1.7H28.9V34H34v1.7H17V34h5.1V32.3H17V30.6h5.1V28.9H17V27.2h5.1V25.5H17V23.8H34v1.7H28.9v1.7Zm-20.4,0h1.7v1.7H13.6Zm0,3.4h1.7v1.7H13.6ZM27.2,44.2h2.55a2.555,2.555,0,0,1,2.4,1.7H18.845a2.555,2.555,0,0,1,2.4-1.7H23.8a.85.85,0,0,0,.85-.85V40.8h1.7v2.55A.85.85,0,0,0,27.2,44.2Zm10.2-5.1H13.6V34h1.7v2.55a.85.85,0,0,0,.85.85h18.7a.85.85,0,0,0,.85-.85V34h1.7Zm0-6.8H35.7V30.6h1.7Zm0-3.4H35.7V27.2h1.7Z"/><path class="e" d="M120,11.05a5.105,5.105,0,0,0,5.1,5.1h15.3a5.093,5.093,0,0,0,1.686-9.9c.009-.1.014-.2.014-.3a3.4,3.4,0,0,0-3.4-3.4,3.348,3.348,0,0,0-.974.146A5.946,5.946,0,0,0,126.8,5.95c0,.1,0,.195.008.292A5.107,5.107,0,0,0,120,11.05Zm7.5-2.406a.85.85,0,0,0,1.376-.95A4.21,4.21,0,0,1,128.5,5.95a4.247,4.247,0,0,1,8.094-1.8.851.851,0,0,0,1.217.361,1.672,1.672,0,0,1,.889-.259,1.685,1.685,0,0,1,1.58,2.309.848.848,0,0,0,.657,1.148,3.392,3.392,0,0,1-.537,6.743H125.1a3.4,3.4,0,1,1,2.4-5.806Z" transform="translate(-107.25)"/></g></svg>