<svg xmlns="http://www.w3.org/2000/svg" viewBox="0 0 21 21"><defs><style>.a{fill:#3e3ea2;}</style></defs><path class="a" d="M11.07,14.954a3.78,3.78,0,0,1,.086.808c0,3.33-2.223,5.238-5.529,5.238C1.7,21,0,17.846,0,14.257c.427.291,1.924,1.5,2.408,1.5a.665.665,0,0,0,.636-.435,4.5,4.5,0,0,1,4.631-3.175,5.089,5.089,0,0,0,3.4,2.81ZM18.892,0a2.373,2.373,0,0,0-1.567.644C9.36,7.793,8.531,7.961,8.531,10.065a3.744,3.744,0,0,0,3.7,3.716c2.42,0,3.823-1.78,8.228-10.041A4.049,4.049,0,0,0,21,1.94,2.033,2.033,0,0,0,18.892,0Z" transform="translate(0)"/></svg>