<svg xmlns="http://www.w3.org/2000/svg" xmlns:xlink="http://www.w3.org/1999/xlink" viewBox="0 0 20 22.857"><defs><style>.a{fill:url(#a);}</style><linearGradient id="a" x1="0.5" x2="0.5" y2="1" gradientUnits="objectBoundingBox"><stop offset="0" stop-color="#5f5f5f"/><stop offset="1" stop-color="#242424"/></linearGradient></defs><path class="a" d="M18.991,14.774c-.758-.749-1.542-1.524-1.542-5.182a7.461,7.461,0,0,0-6.271-7.355,1.429,1.429,0,1,0-2.356,0A7.461,7.461,0,0,0,2.551,9.592c0,3.658-.784,4.433-1.542,5.182A2.986,2.986,0,0,0,2.987,20H7.143a2.857,2.857,0,1,0,5.714,0h4.155A2.986,2.986,0,0,0,18.991,14.774ZM10,21.071A1.073,1.073,0,0,1,8.928,20h2.143A1.073,1.073,0,0,1,10,21.071Zm7.013-3.214H2.986a.843.843,0,0,1-.6-1.437c1.276-1.276,2.3-2.488,2.3-6.828a5.306,5.306,0,0,1,10.612,0c0,4.359,1.037,5.561,2.3,6.828a.843.843,0,0,1-.6,1.437Z" transform="translate(0 0)"/></svg>