<svg xmlns="http://www.w3.org/2000/svg" viewBox="0 0 46 46"><defs><style>.a{fill:#3e3ea2;}</style></defs><g transform="translate(-1566 -1321)"><g transform="translate(1566 1334.46)"><path class="a" d="M20.29,51.54H5.452V37.489A4.458,4.458,0,0,1,1,33.051v-7.4A6.639,6.639,0,0,1,7.677,19H18.065a6.639,6.639,0,0,1,6.677,6.656v7.4a4.458,4.458,0,0,1-4.452,4.437Zm-6.677-1.479h5.194V24.177H20.29V36.01a2.972,2.972,0,0,0,2.968-2.958v-7.4a5.153,5.153,0,0,0-5.194-5.177H7.677a5.153,5.153,0,0,0-5.194,5.177v7.4A2.972,2.972,0,0,0,5.452,36.01V24.177H6.935V50.061h5.194V38.968h1.484Z" transform="translate(-1 -19)"/></g><g transform="translate(1571.193 1321.148)"><path class="a" d="M14.677,15.791A6.639,6.639,0,0,1,8,9.135v-3.7A4.458,4.458,0,0,1,12.452,1H12.9a3.581,3.581,0,0,1,1.781.518A3.581,3.581,0,0,1,16.458,1H16.9a4.458,4.458,0,0,1,4.452,4.437v3.7A6.639,6.639,0,0,1,14.677,15.791ZM12.452,2.479A2.972,2.972,0,0,0,9.484,5.437v3.7a5.194,5.194,0,0,0,10.387,0v-3.7A2.972,2.972,0,0,0,16.9,2.479h-.445A1.939,1.939,0,0,0,15.2,3l-.519.518L14.158,3A2.108,2.108,0,0,0,12.9,2.479Z" transform="translate(-8 -1)"/></g><g transform="translate(1584.548 1347.032)"><rect class="a" width="4.452" height="1.479"/></g><g transform="translate(1566.742 1347.032)"><rect class="a" width="4.452" height="1.479" transform="translate(0)"/></g><g transform="translate(1571.193 1349.99)"><rect class="a" width="13.355" height="1.479"/></g><g transform="translate(1571.193 1362.563)"><rect class="a" width="13.355" height="1.479"/></g><g transform="translate(1574.235 1334.904)"><path class="a" d="M15.735,28.4,12.1,20.192l1.335-.592,2.3,5.1,2.3-5.1,1.335.592Z" transform="translate(-12.1 -19.6)"/></g><g transform="translate(1571.787 1335.052)"><path class="a" d="M14.884,28.9,9.319,26.16l1.41-2.145L8.8,23.424,9.69,19.8l1.484.3-.594,2.293,2.523.887-1.558,2.293,3.339,1.7,3.339-1.7-1.558-2.293,2.523-.887L18.594,20.1l1.484-.3.89,3.624-1.929.592,1.41,2.145Z" transform="translate(-8.8 -19.8)"/></g><g transform="translate(1571.935 1324.846)"><path class="a" d="M20.871,11.177a2.612,2.612,0,0,1-2.523-2.071l-.223-1.257a.47.47,0,0,0-.445-.37h-.519a.642.642,0,0,0-.445.222l-.074.148a1.875,1.875,0,0,1-1.706,1.109,1.939,1.939,0,0,1-1.706-1.035l-.074-.148a.537.537,0,0,0-.445-.3H12.19a.47.47,0,0,0-.445.37l-.223,1.257A2.612,2.612,0,0,1,9,11.177V9.7a1.039,1.039,0,0,0,1.039-.887l.223-1.257A2.05,2.05,0,0,1,12.19,6h.519a1.939,1.939,0,0,1,1.706,1.035l.074.148a.486.486,0,0,0,.816,0l.074-.148A2.157,2.157,0,0,1,17.161,6h.519A2.05,2.05,0,0,1,19.61,7.553l.223,1.257a1.039,1.039,0,0,0,1.039.887Z" transform="translate(-9 -6)"/></g><g transform="translate(1591.226 1350.73)"><path class="a" d="M55.774,57.27H35V41H55.774Zm-19.29-1.479H54.29V42.479H36.484Z" transform="translate(-35 -41)"/></g><g transform="translate(1591.226 1355.907)"><path class="a" d="M52.806,50.958H37.968A2.972,2.972,0,0,1,35,48h1.484a1.486,1.486,0,0,0,1.484,1.479H52.806A1.486,1.486,0,0,0,54.29,48h1.484A2.972,2.972,0,0,1,52.806,50.958Z" transform="translate(-35 -48)"/></g><g transform="translate(1596.419 1346.293)"><path class="a" d="M52.387,40.916H42v-3.7A2.183,2.183,0,0,1,44.226,35h5.935a2.183,2.183,0,0,1,2.226,2.219Zm-8.9-1.479H50.9V37.219a.7.7,0,0,0-.742-.74H44.226a.7.7,0,0,0-.742.74Z" transform="translate(-42 -35)"/></g><g transform="translate(1594.935 1355.907)"><rect class="a" width="1.484" height="4.437"/></g><g transform="translate(1606.806 1355.907)"><rect class="a" width="1.484" height="4.437"/></g><g transform="translate(1599.387 1355.167)"><path class="a" d="M50.452,50.7H46V47h4.452Zm-2.968-1.479h1.484v-.74H47.484Z" transform="translate(-46 -47)"/></g><g transform="translate(1591.226 1328.543)"><path class="a" d="M53.548,25.791H37.226A2.183,2.183,0,0,1,35,23.572V13.219A2.183,2.183,0,0,1,37.226,11H53.548a2.183,2.183,0,0,1,2.226,2.219V23.572A2.183,2.183,0,0,1,53.548,25.791ZM37.226,12.479a.7.7,0,0,0-.742.74V23.572a.7.7,0,0,0,.742.74H53.548a.7.7,0,0,0,.742-.74V13.219a.7.7,0,0,0-.742-.74Z" transform="translate(-35 -11)"/></g><g transform="translate(1607.548 1329.283)"><rect class="a" width="1.484" height="13.312"/></g><g transform="translate(1594.193 1329.283)"><rect class="a" width="1.484" height="13.312"/></g><g transform="translate(1607.548 1333.72)"><path class="a" d="M59.226,22.437a2.219,2.219,0,1,1,2.226-2.219A2.183,2.183,0,0,1,59.226,22.437Zm0-2.958a.74.74,0,1,0,.742.74A.7.7,0,0,0,59.226,19.479Z" transform="translate(-57 -18)"/></g><g transform="translate(1596.493 1321.592)"><path class="a" d="M43.435,17.8l-1.335-.74,2.6-4.215L49,14.32,53.971,1.6l1.335.592L49.89,16.1l-4.6-1.479Z" transform="translate(-42.1 -1.6)"/></g><g transform="translate(1604.358 1321)"><path class="a" d="M58.932,5.755l-1.855-3.18L53.145,3.832,52.7,2.5,57.671.8l2.6,4.215Z" transform="translate(-52.7 -0.8)"/></g></g></svg>