<svg xmlns="http://www.w3.org/2000/svg" xmlns:xlink="http://www.w3.org/1999/xlink" viewBox="0 0 17 20"><defs><style>.a{fill:url(#a);}</style><linearGradient id="a" x1="0.5" x2="0.5" y2="1" gradientUnits="objectBoundingBox"><stop offset="0" stop-color="#7f7cf1"/><stop offset="1" stop-color="#3e3ea2"/></linearGradient></defs><path class="a" d="M5.616,11.25H4.1a.464.464,0,0,1-.455-.469V9.219A.464.464,0,0,1,4.1,8.75H5.616a.464.464,0,0,1,.455.469v1.563A.464.464,0,0,1,5.616,11.25Zm4.1-.469V9.219a.464.464,0,0,0-.455-.469H7.741a.464.464,0,0,0-.455.469v1.563a.464.464,0,0,0,.455.469H9.259A.464.464,0,0,0,9.714,10.781Zm3.643,0V9.219A.464.464,0,0,0,12.9,8.75H11.384a.464.464,0,0,0-.455.469v1.563a.464.464,0,0,0,.455.469H12.9A.464.464,0,0,0,13.357,10.781Zm-3.643,3.75V12.969a.464.464,0,0,0-.455-.469H7.741a.464.464,0,0,0-.455.469v1.562A.464.464,0,0,0,7.741,15H9.259A.464.464,0,0,0,9.714,14.531Zm-3.643,0V12.969a.464.464,0,0,0-.455-.469H4.1a.464.464,0,0,0-.455.469v1.562A.464.464,0,0,0,4.1,15H5.616A.464.464,0,0,0,6.071,14.531Zm7.286,0V12.969A.464.464,0,0,0,12.9,12.5H11.384a.464.464,0,0,0-.455.469v1.562a.464.464,0,0,0,.455.469H12.9A.464.464,0,0,0,13.357,14.531ZM17,4.375v13.75A1.849,1.849,0,0,1,15.179,20H1.821A1.849,1.849,0,0,1,0,18.125V4.375A1.849,1.849,0,0,1,1.821,2.5H3.643V.469A.464.464,0,0,1,4.1,0H5.616a.464.464,0,0,1,.455.469V2.5h4.857V.469A.464.464,0,0,1,11.384,0H12.9a.464.464,0,0,1,.455.469V2.5h1.821A1.849,1.849,0,0,1,17,4.375ZM15.179,17.891V6.25H1.821V17.891a.232.232,0,0,0,.228.234h12.9A.232.232,0,0,0,15.179,17.891Z" transform="translate(0)"/></svg>