<svg xmlns="http://www.w3.org/2000/svg" xmlns:xlink="http://www.w3.org/1999/xlink" viewBox="0 0 9 9"><defs><style>.a{fill:url(#a);}</style><linearGradient id="a" x1="0.5" x2="0.5" y2="1" gradientUnits="objectBoundingBox"><stop offset="0" stop-color="#c9ffb5"/><stop offset="1" stop-color="#46a23e"/></linearGradient></defs><path class="a" d="M17,12.5A4.5,4.5,0,1,1,12.5,8,4.5,4.5,0,0,1,17,12.5Zm-5.021,2.383,3.339-3.339a.29.29,0,0,0,0-.411l-.411-.411a.29.29,0,0,0-.411,0l-2.723,2.723L10.5,12.174a.29.29,0,0,0-.411,0l-.411.411a.29.29,0,0,0,0,.411l1.887,1.887A.29.29,0,0,0,11.979,14.883Z" transform="translate(-8 -8)"/></svg>