<svg xmlns="http://www.w3.org/2000/svg" xmlns:xlink="http://www.w3.org/1999/xlink" viewBox="0 0 21 21"><defs><style>.a{fill:url(#a);}.b{fill:#fff;}.c{filter:url(#b);}</style><linearGradient id="a" x1="0.5" x2="0.5" y2="1" gradientUnits="objectBoundingBox"><stop offset="0" stop-color="#7f7cf1"/><stop offset="1" stop-color="#3e3ea2"/></linearGradient><filter id="b" x="3.767" y="6.372" width="14" height="11.203" filterUnits="userSpaceOnUse"><feOffset dy="1" input="SourceAlpha"/><feGaussianBlur stdDeviation="0.5" result="c"/><feFlood flood-color="#121262" flood-opacity="0.071"/><feComposite operator="in" in2="c"/><feComposite in="SourceGraphic"/></filter></defs><g transform="translate(-1216 -1334)"><rect class="a" width="21" height="21" rx="10.5" transform="translate(1216 1334)"/><g class="c" transform="matrix(1, 0, 0, 1, 1216, 1334)"><path class="b" d="M3.736,73.14.161,69.565a.55.55,0,0,1,0-.778l.778-.778a.55.55,0,0,1,.778,0l2.408,2.408,5.158-5.158a.55.55,0,0,1,.778,0l.778.778a.55.55,0,0,1,0,.778L4.514,73.14a.55.55,0,0,1-.778,0Z" transform="translate(5.27 -58.23)"/></g></g></svg>