<svg xmlns="http://www.w3.org/2000/svg" xmlns:xlink="http://www.w3.org/1999/xlink" viewBox="0 0 15 15"><defs><style>.a{fill:url(#a);}</style><linearGradient id="a" x1="0.5" x2="0.5" y2="1" gradientUnits="objectBoundingBox"><stop offset="0" stop-color="#ff8686"/><stop offset="1" stop-color="#f24f4f"/></linearGradient></defs><path class="a" d="M15.5,8A7.5,7.5,0,1,0,23,15.5,7.5,7.5,0,0,0,15.5,8Zm3.677,9.469a.363.363,0,0,1,0,.514l-1.2,1.195a.363.363,0,0,1-.514,0L15.5,17.194l-1.969,1.984a.363.363,0,0,1-.514,0l-1.195-1.2a.363.363,0,0,1,0-.514L13.806,15.5l-1.984-1.969a.363.363,0,0,1,0-.514l1.2-1.2a.363.363,0,0,1,.514,0L15.5,13.806l1.969-1.984a.363.363,0,0,1,.514,0l1.2,1.2a.363.363,0,0,1,0,.514L17.194,15.5Z" transform="translate(-8 -8)"/></svg>