<svg xmlns="http://www.w3.org/2000/svg" viewBox="0 0 13 18"><defs><style>.a{fill:#3e3ea2;}</style></defs><g transform="translate(-13.576 -11)"><g transform="translate(13.576 11)"><path class="a" d="M20.057,29a1.576,1.576,0,0,1-1.311-.8L14.508,21a6.625,6.625,0,0,1,2.119-9,6.846,6.846,0,0,1,3.43-1,6.5,6.5,0,0,1,5.649,9.7v.1l-4.338,7.5A1.729,1.729,0,0,1,20.057,29Zm0-17a6.12,6.12,0,0,0-2.926.8,5.532,5.532,0,0,0-1.715,7.6l4.237,7.3a.421.421,0,0,0,.807,0L24.8,20.3v-.1a5.376,5.376,0,0,0,0-5.5A5.478,5.478,0,0,0,20.057,12Z" transform="translate(-13.576 -11)"/><g transform="translate(3.958 4)"><path class="a" d="M20.022,20a2.5,2.5,0,1,1,2.522-2.5A2.487,2.487,0,0,1,20.022,20Zm0-4a1.5,1.5,0,1,0,1.513,1.5A1.545,1.545,0,0,0,20.022,16Z" transform="translate(-17.5 -15)"/></g></g></g></svg>