<svg xmlns="http://www.w3.org/2000/svg" xmlns:xlink="http://www.w3.org/1999/xlink" viewBox="0 0 20 20"><defs><style>.a{fill:url(#a);}</style><linearGradient id="a" x1="0.5" x2="0.5" y2="1" gradientUnits="objectBoundingBox"><stop offset="0" stop-color="#7f7cf1"/><stop offset="1" stop-color="#3e3ea2"/></linearGradient></defs><path class="a" d="M17.977-15.03a2.818,2.818,0,0,1,2.65,2.65q.053,4.15,0,8.3a2.818,2.818,0,0,1-2.65,2.65q-4.15.052-8.3,0a2.818,2.818,0,0,1-2.65-2.65q-.053-4.15,0-8.3a2.818,2.818,0,0,1,2.65-2.65Q13.826-15.082,17.977-15.03ZM9.752-13.217a.94.94,0,0,0-.912.883c-.035,2.744-.1,5.49,0,8.232a.938.938,0,0,0,.882.859c2.744.035,5.49.1,8.232,0a.938.938,0,0,0,.859-.882c.035-2.744.1-5.49,0-8.232a.938.938,0,0,0-.882-.859C15.2-13.251,12.478-13.217,9.752-13.217Z" transform="translate(-0.653 21.404)"/><path class="a" d="M10.977-22.03c1.653.064,2.651,1.579,2.651,3.626-.034.946-1.691,1.186-1.811.065-.03-.852-.056-1.846-.886-1.878-2.743-.035-5.489-.1-8.23,0a.941.941,0,0,0-.86.882c-.035,2.743-.1,5.489,0,8.23.072,1.119,2.183.4,2.637,1.391C5.222-8.083.144-8.027.027-11.08q-.053-4.15,0-8.3a2.821,2.821,0,0,1,2.65-2.65Q6.826-22.083,10.977-22.03Z" transform="translate(0 22.056)"/></svg>