<svg xmlns="http://www.w3.org/2000/svg" xmlns:xlink="http://www.w3.org/1999/xlink" viewBox="0 0 20 20"><defs><style>.a{fill:url(#a);}</style><linearGradient id="a" x1="0.5" x2="0.5" y2="1" gradientUnits="objectBoundingBox"><stop offset="0" stop-color="#7f7cf1"/><stop offset="1" stop-color="#3e3ea2"/></linearGradient></defs><path class="a" d="M7.686-20.227c.489.061.519.19.641.347a.919.919,0,0,1-.716,1.464c-2.405,0-5.7-.588-5.755.884-.055,4.256-.163,8.516,0,12.77a.942.942,0,0,0,.883.861c4.259.055,8.522.163,12.778,0,1.347-.086.861-3.3.861-5.75.041-.982,1.761-1.33,1.816,0,0,3.43.371,7.448-2.653,7.565q-6.424.083-12.849,0A2.823,2.823,0,0,1,.041-4.739q-.082-6.419,0-12.84A2.823,2.823,0,0,1,2.694-20.23C4.358-20.251,6.024-20.3,7.686-20.227Zm2.34,12.7H6.395a.941.941,0,0,1-.908-.907v-3.629a.827.827,0,0,1,.266-.641l9.078-9.072c.191-.177.2-.3.744-.26a1.007,1.007,0,0,1,.54.26l3.631,3.629a.936.936,0,0,1,0,1.283L10.668-7.8A.828.828,0,0,1,10.026-7.53ZM7.3-11.69v2.346H9.65l8.17-8.164-2.347-2.346Z" transform="translate(0 22.047)"/></svg>