<svg xmlns="http://www.w3.org/2000/svg" xmlns:xlink="http://www.w3.org/1999/xlink" viewBox="0 0 17 17"><defs><style>.a{fill:url(#a);}</style><linearGradient id="a" x1="0.5" x2="0.5" y2="1" gradientUnits="objectBoundingBox"><stop offset="0" stop-color="#7f7cf1"/><stop offset="1" stop-color="#3e3ea2"/></linearGradient></defs><g transform="translate(-1 -1)"><path class="a" d="M12.013-19.995a.669.669,0,0,1,.5.242L16.762-15.5a.878.878,0,0,1,0,1.2L5.7-3.258a.774.774,0,0,1-.6.249H.851A.879.879,0,0,1,0-3.858V-8.106a.773.773,0,0,1,.249-.6L11.307-19.752C11.594-20.017,11.6-20.029,12.013-19.995ZM1.7-7.755v3.047h3.05L14.958-14.9l-3.05-3.047Z" transform="translate(1 21.009)"/></g></svg>