<svg xmlns="http://www.w3.org/2000/svg" viewBox="0 0 29 29"><defs><style>.a{fill:none;}.b,.d{fill:#3e3ea2;}.c,.d{stroke:none;}</style></defs><g transform="translate(-1903 -1669)"><g class="a" transform="translate(1903 1669)"><path class="c" d="M14.5,0A14.5,14.5,0,1,1,0,14.5,14.5,14.5,0,0,1,14.5,0Z"/><path class="d" d="M 14.5 28 C 18.10597991943359 28 21.49612998962402 26.59576034545898 24.04594039916992 24.04594039916992 C 26.59576034545898 21.49612998962402 28 18.10597991943359 28 14.5 C 28 10.89402008056641 26.59576034545898 7.503870010375977 24.04594039916992 4.954060077667236 C 21.49612998962402 2.404239892959595 18.10597991943359 1 14.5 1 C 10.89402008056641 1 7.503870010375977 2.404239892959595 4.954060077667236 4.954060077667236 C 2.404239892959595 7.503870010375977 1 10.89402008056641 1 14.5 C 1 18.10597991943359 2.404239892959595 21.49612998962402 4.954060077667236 24.04594039916992 C 7.503870010375977 26.59576034545898 10.89402008056641 28 14.5 28 M 14.5 29 C 6.491869926452637 29 -1.77635683940025e-15 22.50812911987305 -1.77635683940025e-15 14.5 C -1.77635683940025e-15 6.491869926452637 6.491869926452637 -1.77635683940025e-15 14.5 -1.77635683940025e-15 C 22.50812911987305 -1.77635683940025e-15 29 6.491869926452637 29 14.5 C 29 22.50812911987305 22.50812911987305 29 14.5 29 Z"/></g><g transform="translate(1911 1676)"><path class="b" d="M9.893-20a.551.551,0,0,1,.409.2l3.5,3.5a.723.723,0,0,1,0,.99L4.7-6.214a.638.638,0,0,1-.5.2H.7a.724.724,0,0,1-.7-.7v-3.5A.636.636,0,0,1,.205-10.7l9.106-9.1C9.548-20.016,9.55-20.026,9.893-20ZM1.4-9.917v2.509H3.913l8.406-8.4L9.807-18.313Z" transform="translate(0 20.009)"/></g></g></svg>