<svg xmlns="http://www.w3.org/2000/svg" viewBox="0 0 29 29"><defs><style>.a{fill:#2a2a7e;}.b{fill:#fff;}</style></defs><g transform="translate(-1903 -1669)"><path class="a" d="M14.5,0A14.5,14.5,0,1,1,0,14.5,14.5,14.5,0,0,1,14.5,0Z" transform="translate(1903 1669)"/><g transform="translate(1911 1676)"><path class="b" d="M9.893-20a.551.551,0,0,1,.409.2l3.5,3.5a.723.723,0,0,1,0,.99L4.7-6.214a.638.638,0,0,1-.5.2H.7a.724.724,0,0,1-.7-.7v-3.5A.636.636,0,0,1,.205-10.7l9.106-9.1C9.548-20.016,9.55-20.026,9.893-20ZM1.4-9.917v2.509H3.913l8.406-8.4L9.807-18.313Z" transform="translate(0 20.009)"/></g></g></svg>