<svg xmlns="http://www.w3.org/2000/svg" viewBox="0 0 46 46"><defs><style>.a{fill:#3e3ea2;}</style></defs><g transform="translate(-1 -1)"><g transform="translate(1 14.355)"><path class="a" d="M20.29,51.645H5.452v-14.1A4.465,4.465,0,0,1,1,33.1V25.677A6.65,6.65,0,0,1,7.677,19H18.065a6.65,6.65,0,0,1,6.677,6.677V33.1a4.465,4.465,0,0,1-4.452,4.452Zm-6.677-1.484h5.194V24.194H20.29V36.065A2.976,2.976,0,0,0,23.258,33.1V25.677a5.162,5.162,0,0,0-5.194-5.194H7.677a5.162,5.162,0,0,0-5.194,5.194V33.1a2.976,2.976,0,0,0,2.968,2.968V24.194H6.935V50.161h5.194V39.032h1.484Z" transform="translate(-1 -19)"/></g><g transform="translate(6.194 8.419)"><path class="a" d="M14.677,18.419A6.65,6.65,0,0,1,8,11.742V11H9.484v.742a5.194,5.194,0,1,0,10.387,0V11h1.484v.742A6.65,6.65,0,0,1,14.677,18.419Z" transform="translate(-8 -11)"/></g><g transform="translate(19.548 28.452)"><rect class="a" width="4.452" height="1.484"/></g><g transform="translate(1.742 28.452)"><rect class="a" width="4.452" height="1.484"/></g><g transform="translate(6.194 29.935)"><rect class="a" width="13.355" height="1.484"/></g><g transform="translate(6.194 42.548)"><rect class="a" width="13.355" height="1.484"/></g><g transform="translate(9.384 14.577)"><path class="a" d="M16.826,22.787H14.748L12.3,20.339,13.339,19.3l2,2h.89l2-2,1.039,1.039Z" transform="translate(-12.3 -19.3)"/></g><g transform="translate(10.645 17.248)"><path class="a" d="M16.226,34.4,14,32.174l.742-9.274,1.484.148-.742,8.532.742.742.742-.742-.742-8.532L17.71,22.9l.742,9.274Z" transform="translate(-14 -22.9)"/></g><g transform="translate(13.168 14.8)"><path class="a" d="M20.442,24.719l-3.042-2,.89-1.187,1.41.965L20.887,19.6l1.335.594Z" transform="translate(-17.4 -19.6)"/></g><g transform="translate(7.752 14.8)"><path class="a" d="M11.881,24.719,10.1,20.194l1.335-.594,1.187,2.894,1.41-.965.89,1.187Z" transform="translate(-10.1 -19.6)"/></g><g transform="translate(10.645 1)"><path class="a" d="M18.452,8.419H14V2.484A1.488,1.488,0,0,1,15.484,1h1.484a1.488,1.488,0,0,1,1.484,1.484ZM15.484,6.935h1.484V2.484H15.484Z" transform="translate(-14 -1)"/></g><g transform="translate(13.613 1.742)"><path class="a" d="M23.935,8.677H18V2h.742a5.162,5.162,0,0,1,5.194,5.194ZM19.484,7.194h2.968a3.732,3.732,0,0,0-2.968-3.635Z" transform="translate(-18 -2)"/></g><g transform="translate(6.194 1.742)"><path class="a" d="M13.935,8.677H8V7.194A5.162,5.162,0,0,1,13.194,2h.742ZM9.484,7.194h2.968V3.558A3.732,3.732,0,0,0,9.484,7.194Z" transform="translate(-8 -2)"/></g><g transform="translate(6.342 7.232)"><path class="a" d="M14.729,12.813c-4.748,0-6.455-2.448-6.529-2.523l1.261-.816s1.335,1.855,5.268,1.855S20.071,9.474,20.071,9.4l1.261.816C21.184,10.365,19.477,12.813,14.729,12.813Z" transform="translate(-8.2 -9.4)"/></g><g transform="translate(32.161 26.226)"><path class="a" d="M47.452,55.774A4.465,4.465,0,0,1,43,51.323V35h8.9V51.323A4.465,4.465,0,0,1,47.452,55.774Zm-2.968-19.29V51.323a2.968,2.968,0,0,0,5.935,0V36.484Z" transform="translate(-43 -35)"/></g><g transform="translate(30.677 26.226)"><rect class="a" width="11.871" height="1.484"/></g><g transform="translate(35.871 41.806)"><rect class="a" width="1.484" height="1.484"/></g><g transform="translate(35.871 26.968)"><rect class="a" width="1.484" height="13.355"/></g><g transform="translate(34.387 6.935)"><path class="a" d="M50.452,29.774H46V9h1.484V28.29h1.484V9h1.484Z" transform="translate(-46 -9)"/></g><g transform="translate(31.419 6.194)"><path class="a" d="M48.9,18.09l-.519-1.41a3.71,3.71,0,1,0-2.523,0l-.519,1.41A5.273,5.273,0,0,1,42,13.194a5.194,5.194,0,1,1,6.9,4.9Z" transform="translate(-42 -8)"/></g><g transform="translate(26.226 1)"><path class="a" d="M48.355,21.774H46.871V18.658l.519-.148a4.947,4.947,0,0,0,1.558-.668l.519-.3,1.113,1.113,2.077-2.077-1.113-1.113.3-.519a7.044,7.044,0,0,0,.668-1.558l.148-.519H54.29V9.9H52.658l-.148-.519a4.947,4.947,0,0,0-.668-1.558l-.3-.519,1.113-1.113L50.581,4.116,49.468,5.229l-.519-.3a7.044,7.044,0,0,0-1.558-.668l-.519-.148V2.484H43.9V4.116l-.519.148a4.947,4.947,0,0,0-1.558.668l-.519.3L40.194,4.116,38.116,6.194l1.113,1.113-.3.519a7.044,7.044,0,0,0-.668,1.558l-.148.519H36.484v2.968h1.632l.148.519a4.947,4.947,0,0,0,.668,1.558l.3.519-1.113,1.113,2.077,2.077,1.113-1.113.519.3a7.044,7.044,0,0,0,1.558.668l.519.148v3.116H42.419v-2a4.538,4.538,0,0,1-.89-.371l-1.41,1.41L35.89,16.581l1.41-1.41c-.148-.3-.223-.594-.371-.89H35V8.345h2a4.538,4.538,0,0,1,.371-.89l-1.41-1.41,4.229-4.229,1.41,1.41A4.562,4.562,0,0,0,42.419,3V1h5.935V3a4.539,4.539,0,0,1,.89.371l1.41-1.41,4.229,4.229L53.474,7.6c.148.3.223.594.371.89h1.929v5.935h-2a4.538,4.538,0,0,1-.371.89l1.41,1.41-4.229,4.229-1.41-1.41c-.3.148-.594.223-.89.371v1.855Z" transform="translate(-35 -1)"/></g></g></svg>