<svg xmlns="http://www.w3.org/2000/svg" viewBox="0 0 60.742 46"><defs><style>.a{fill:#3e3ea2;}.b{fill:none;stroke:#3e3ea2;stroke-linecap:round;stroke-linejoin:round;stroke-width:1.5px;}</style></defs><g transform="translate(-985 -456)"><g transform="translate(985 469.355)"><path class="a" d="M20.29,51.645H5.452v-14.1A4.465,4.465,0,0,1,1,33.1V25.677A6.65,6.65,0,0,1,7.677,19H18.065a6.65,6.65,0,0,1,6.677,6.677V33.1a4.465,4.465,0,0,1-4.452,4.452Zm-6.677-1.484h5.194V24.194H20.29V36.065A2.976,2.976,0,0,0,23.258,33.1V25.677a5.162,5.162,0,0,0-5.194-5.194H7.677a5.162,5.162,0,0,0-5.194,5.194V33.1a2.976,2.976,0,0,0,2.968,2.968V24.194H6.935V50.161h5.194V39.032h1.484Z" transform="translate(-1 -19)"/></g><g transform="translate(990.194 456)"><path class="a" d="M14.677,15.839A6.65,6.65,0,0,1,8,9.161V7.677a6.677,6.677,0,1,1,13.355,0V9.161A6.65,6.65,0,0,1,14.677,15.839Zm0-13.355A5.162,5.162,0,0,0,9.484,7.677V9.161a5.194,5.194,0,1,0,10.387,0V7.677A5.162,5.162,0,0,0,14.677,2.484Z" transform="translate(-8 -1)"/><path class="a" d="M20.871,11.177a2.612,2.612,0,0,1-2.523-2.071l-.223-1.257a.47.47,0,0,0-.445-.37h-.519a.642.642,0,0,0-.445.222l-.074.148a1.875,1.875,0,0,1-1.706,1.109,1.939,1.939,0,0,1-1.706-1.035l-.074-.148a.537.537,0,0,0-.445-.3H12.19a.47.47,0,0,0-.445.37l-.223,1.257A2.612,2.612,0,0,1,9,11.177V9.7a1.039,1.039,0,0,0,1.039-.887l.223-1.257A2.05,2.05,0,0,1,12.19,6h.519a1.939,1.939,0,0,1,1.706,1.035l.074.148a.486.486,0,0,0,.816,0l.074-.148A2.157,2.157,0,0,1,17.161,6h.519A2.05,2.05,0,0,1,19.61,7.553l.223,1.257a1.039,1.039,0,0,0,1.039.887Z" transform="translate(-8.258 -4.154)"/></g><g transform="translate(1003.548 483.452)"><rect class="a" width="4.452" height="1.484"/></g><g transform="translate(985.742 483.452)"><rect class="a" width="4.452" height="1.484"/></g><g transform="translate(990.194 484.935)"><rect class="a" width="13.355" height="1.484"/></g><g transform="translate(990.194 497.548)"><rect class="a" width="13.355" height="1.484"/></g><g transform="translate(992.419 463.419)"><path class="a" d="M15.452,16.194A4.465,4.465,0,0,1,11,11.742a.742.742,0,0,1,1.484,0,2.968,2.968,0,1,0,5.935,0,.742.742,0,1,1,1.484,0A4.465,4.465,0,0,1,15.452,16.194Z" transform="translate(-11 -11)"/></g><g transform="translate(992.419 478.961)"><rect class="a" width="15.677" height="1.484" transform="translate(0 6.677) rotate(-89.217)"/></g><g transform="translate(999.719 478.991)"><rect class="a" width="1.484" height="15.677" transform="matrix(1, -0.013, 0.013, 1, -0.121, -8.979)"/></g><g transform="translate(1022 469.355)"><path class="a" d="M20.29,51.645H5.452v-14.1A4.465,4.465,0,0,1,1,33.1V25.677A6.65,6.65,0,0,1,7.677,19H18.065a6.65,6.65,0,0,1,6.677,6.677V33.1a4.465,4.465,0,0,1-4.452,4.452Zm-6.677-1.484h5.194V24.194H20.29V36.065A2.976,2.976,0,0,0,23.258,33.1V25.677a5.162,5.162,0,0,0-5.194-5.194H7.677a5.162,5.162,0,0,0-5.194,5.194V33.1a2.976,2.976,0,0,0,2.968,2.968V24.194H6.935V50.161h5.194V39.032h1.484Z" transform="translate(-1 -19)"/></g><g transform="translate(1027.194 456)"><path class="a" d="M14.677,15.839A6.65,6.65,0,0,1,8,9.161V7.677a6.677,6.677,0,1,1,13.355,0V9.161A6.65,6.65,0,0,1,14.677,15.839Zm0-13.355A5.162,5.162,0,0,0,9.484,7.677V9.161a5.194,5.194,0,1,0,10.387,0V7.677A5.162,5.162,0,0,0,14.677,2.484Z" transform="translate(-8 -1)"/><path class="a" d="M20.445,10.377A6.353,6.353,0,0,1,17.774,8a1.168,1.168,0,0,0-.965-.519H12.8a1.058,1.058,0,0,0-.89.445,7.293,7.293,0,0,1-2.745,2.448L8.5,9.042a5.755,5.755,0,0,0,2.152-1.855A2.584,2.584,0,0,1,12.8,6H16.81a2.7,2.7,0,0,1,2.152,1.113,5.412,5.412,0,0,0,2.152,1.929Z" transform="translate(-8.129 -3.291)"/></g><g transform="translate(1040.548 483.452)"><rect class="a" width="4.452" height="1.484"/></g><g transform="translate(1022.742 483.452)"><rect class="a" width="4.452" height="1.484"/></g><g transform="translate(1027.194 484.935)"><rect class="a" width="13.355" height="1.484"/></g><g transform="translate(1027.194 497.548)"><rect class="a" width="13.355" height="1.484"/></g><g transform="translate(1029.419 463.419)"><path class="a" d="M15.452,16.194A4.465,4.465,0,0,1,11,11.742a.742.742,0,0,1,1.484,0,2.968,2.968,0,1,0,5.935,0,.742.742,0,1,1,1.484,0A4.465,4.465,0,0,1,15.452,16.194Z" transform="translate(-11 -11)"/></g><path class="b" d="M11.2,6.222S14.421,3,16.032,4.611s1.074,3.759-1.611,5.907-4.3,2.685-5.37.537m0,3.759S5.83,18.035,4.219,16.424,3.145,12.666,5.83,10.518s4.3-2.685,5.37-.537" transform="translate(1005.062 482.822)"/></g></svg>