<svg xmlns="http://www.w3.org/2000/svg" xmlns:xlink="http://www.w3.org/1999/xlink" viewBox="0 0 15 12.065"><defs><style>.a{fill:url(#a);}</style><linearGradient id="a" x1="0.5" x2="0.5" y2="1" gradientUnits="objectBoundingBox"><stop offset="0" stop-color="#ff8686"/><stop offset="1" stop-color="#f24f4f"/></linearGradient></defs><path class="a" d="M9.783,17.429v2.984a.627.627,0,0,1-.62.652H.652A.654.654,0,0,1,0,20.413V9.652A.654.654,0,0,1,.652,9H9.163a.627.627,0,0,1,.62.652v2.984a.652.652,0,0,1-1.3,0V10.3H1.3v9.457H8.478V17.429a.652.652,0,0,1,1.3,0ZM14.8,14.543l-2.543-2.576a.657.657,0,0,0-.929.929l1.451,1.467-7.908.016a.652.652,0,0,0,0,1.3h0l7.908-.016-1.451,1.467a.664.664,0,0,0,0,.929.644.644,0,0,0,.457.2.617.617,0,0,0,.457-.2l2.56-2.576A.669.669,0,0,0,14.8,14.543Z" transform="translate(0 -9)"/></svg>