<svg xmlns="http://www.w3.org/2000/svg" viewBox="0 0 11 11"><defs><style>.a{fill:#3e3ea2;}</style></defs><path class="a" d="M8.931-10.292q-1.251-1.162-2.46-2.364a.56.56,0,0,1,.462-.912.635.635,0,0,1,.353.141q1.253,1.132,2.466,2.3c-.046-.972-.066-1.927.643-1.9.841.071.57,1.9.538,3.3a.428.428,0,0,1-.159.308.591.591,0,0,1-.442.193A15.069,15.069,0,0,1,7.449-9.2c-.572-.036-.769-1.075.025-1.092Zm0-8.712c-.866.042-1.686.085-1.938-.267a.566.566,0,0,1,.451-.853q1.466-.031,2.933,0l.019,0h.014a.364.364,0,0,1,.164.051c.608.317.384,1.963.354,3.248-.039.552-1.136.675-1.152-.024v-1.412L.965-9.906c-.225.2-.3.162-.419.16a.558.558,0,0,1-.4-.932ZM.577-19.577a.63.63,0,0,1,.37.143q1.491,1.352,2.918,2.765c.385.417-.31,1.19-.814.772Q1.56-17.249.133-18.663A.562.562,0,0,1,.577-19.577Z" transform="translate(0 20.139)"/></svg>