<svg xmlns="http://www.w3.org/2000/svg" viewBox="0 0 20 20"><defs><style>.a{fill:#ff4d4d;}.b{fill:#fff;fill-rule:evenodd;}</style></defs><g transform="translate(-0.208 -0.001)"><path class="a" d="M10.2,20h.01a10,10,0,0,0,10-10v0a10,10,0,1,0-20,0v0a10,10,0,0,0,10,10"/><path class="b" d="M160.107,103.956v-1.349h-.962v1.349H157.8v.962h1.349v1.349h.962v-1.349h1.349v-.962Z" transform="translate(-145.167 -94.519)"/><path class="b" d="M53.81,82.332v1.542h2.066a1.763,1.763,0,0,1-.424.873,2.289,2.289,0,0,1-3.256-.015,2.342,2.342,0,0,1,.022-3.275,2.182,2.182,0,0,1,3.055-.079l0,0L56.4,80.254a3.859,3.859,0,0,0-5.341,5.567,3.9,3.9,0,0,0,5.5.025,4.143,4.143,0,0,0,.89-3.514H53.81Z" transform="translate(-45.814 -72.997)"/></g></svg>