<svg xmlns="http://www.w3.org/2000/svg" viewBox="0 0 40 40"><defs><style>.a,.d{fill:none;}.a{stroke:#3e3ea2;}.b{fill:#3e3ea2;}.c{stroke:none;}</style></defs><g transform="translate(-0.04 -0.002)"><g class="a" transform="translate(0.04 0.002)"><rect class="c" width="40" height="40" rx="3"/><rect class="d" x="0.5" y="0.5" width="39" height="39" rx="2.5"/></g><path class="b" d="M24,20.281C24,27.127,19.234,32,12.2,32a12,12,0,1,1,0-24,11.834,11.834,0,0,1,8.179,3.14l-3.32,3.14C12.713,10.158,4.638,13.255,4.638,20A7.577,7.577,0,0,0,12.2,27.577c4.83,0,6.639-3.406,6.925-5.173H12.2V18.277H23.808a10.356,10.356,0,0,1,.192,2Z" transform="translate(8.04 0.002)"/></g></svg>