<svg xmlns="http://www.w3.org/2000/svg" viewBox="0 0 46 46"><defs><style>.a{fill:#3e3ea2;}</style></defs><g transform="translate(-1 -1)"><g transform="translate(1 14.355)"><path class="a" d="M20.29,51.645H5.452v-14.1A4.465,4.465,0,0,1,1,33.1V25.677A6.65,6.65,0,0,1,7.677,19H18.065a6.65,6.65,0,0,1,6.677,6.677V33.1a4.465,4.465,0,0,1-4.452,4.452Zm-6.677-1.484h5.194V24.194H20.29V36.065A2.976,2.976,0,0,0,23.258,33.1V25.677a5.162,5.162,0,0,0-5.194-5.194H7.677a5.162,5.162,0,0,0-5.194,5.194V33.1a2.976,2.976,0,0,0,2.968,2.968V24.194H6.935V50.161h5.194V39.032h1.484Z" transform="translate(-1 -19)"/></g><g transform="translate(6.194 1)"><path class="a" d="M14.677,15.839A6.65,6.65,0,0,1,8,9.161V6.787A5.8,5.8,0,0,1,13.787,1h1.855a5.779,5.779,0,0,1,5.713,5.787V9.161A6.65,6.65,0,0,1,14.677,15.839Zm-.89-13.355a4.306,4.306,0,0,0-4.3,4.3V9.161a5.194,5.194,0,1,0,10.387,0V6.787a4.306,4.306,0,0,0-4.3-4.3Z" transform="translate(-8 -1)"/></g><g transform="translate(19.548 21.032)"><rect class="a" width="4.452" height="1.484"/></g><g transform="translate(1.742 21.032)"><rect class="a" width="4.452" height="1.484"/></g><g transform="translate(6.194 29.935)"><rect class="a" width="13.355" height="1.484"/></g><g transform="translate(6.194 42.548)"><rect class="a" width="13.355" height="1.484"/></g><g transform="translate(6.565 4.71)"><path class="a" d="M20.445,10.377A6.353,6.353,0,0,1,17.774,8a1.168,1.168,0,0,0-.965-.519H12.8a1.058,1.058,0,0,0-.89.445,7.293,7.293,0,0,1-2.745,2.448L8.5,9.042a5.755,5.755,0,0,0,2.152-1.855A2.584,2.584,0,0,1,12.8,6H16.81a2.7,2.7,0,0,1,2.152,1.113,5.412,5.412,0,0,0,2.152,1.929Z" transform="translate(-8.5 -6)"/></g><g transform="translate(8.419 15.097)"><path class="a" d="M15.452,23.71C13,23.71,11,22.077,11,20h1.484c0,1.261,1.335,2.226,2.968,2.226s2.968-.965,2.968-2.226H19.9C19.9,22.077,17.9,23.71,15.452,23.71Z" transform="translate(-11 -20)"/></g><g transform="translate(6.194 20.29)"><rect class="a" width="13.355" height="1.484"/></g><g transform="translate(6.194 23.258)"><rect class="a" width="13.355" height="1.484"/></g><g transform="translate(15.839 30.677)"><path class="a" d="M24.71,45.452A3.674,3.674,0,0,1,21,41.742V41h1.484v.742a2.186,2.186,0,0,0,2.226,2.226Z" transform="translate(-21 -41)"/></g><g transform="translate(6.194 30.677)"><path class="a" d="M8,45.452V43.968a2.186,2.186,0,0,0,2.226-2.226V41H11.71v.742A3.674,3.674,0,0,1,8,45.452Z" transform="translate(-8 -41)"/></g><g transform="translate(26.226 8.419)"><path class="a" d="M53.548,25.839H37.226A2.186,2.186,0,0,1,35,23.613V13.226A2.186,2.186,0,0,1,37.226,11H53.548a2.186,2.186,0,0,1,2.226,2.226V23.613A2.186,2.186,0,0,1,53.548,25.839ZM37.226,12.484a.7.7,0,0,0-.742.742V23.613a.7.7,0,0,0,.742.742H53.548a.7.7,0,0,0,.742-.742V13.226a.7.7,0,0,0-.742-.742Z" transform="translate(-35 -11)"/></g><g transform="translate(26.968 18.806)"><rect class="a" width="19.29" height="1.484"/></g><g transform="translate(32.903 21.774)"><path class="a" d="M51.419,33.452H44V29h7.419Zm-5.935-1.484h4.452V30.484H45.484Z" transform="translate(-44 -29)"/></g><g transform="translate(30.677 24.742)"><rect class="a" width="11.871" height="1.484"/></g><g transform="translate(26.226 27.71)"><path class="a" d="M55.774,45.9H35V37H55.774Zm-19.29-1.484H54.29V38.484H36.484Z" transform="translate(-35 -37)"/></g><g transform="translate(28.452 29.935)"><rect class="a" width="1.484" height="1.484"/></g><g transform="translate(31.419 29.935)"><rect class="a" width="1.484" height="1.484"/></g><g transform="translate(34.387 29.935)"><rect class="a" width="1.484" height="1.484"/></g><g transform="translate(37.355 29.935)"><rect class="a" width="1.484" height="1.484"/></g><g transform="translate(40.323 29.935)"><rect class="a" width="1.484" height="1.484"/></g><g transform="translate(43.29 29.935)"><rect class="a" width="1.484" height="1.484"/></g><g transform="translate(28.452 32.903)"><rect class="a" width="1.484" height="1.484"/></g><g transform="translate(31.419 32.903)"><rect class="a" width="10.387" height="1.484"/></g><g transform="translate(43.29 32.903)"><rect class="a" width="1.484" height="1.484"/></g><g transform="translate(31.123 11.61)"><path class="a" d="M44.345,20.79,41.6,18.045,44.345,15.3l1.039,1.039-1.706,1.706,1.706,1.706Z" transform="translate(-41.6 -15.3)"/></g><g transform="translate(38.319 11.61)"><path class="a" d="M52.339,20.79,51.3,19.752l1.706-1.706L51.3,16.339,52.339,15.3l2.745,2.745Z" transform="translate(-51.3 -15.3)"/></g></g></svg>