<svg xmlns="http://www.w3.org/2000/svg" viewBox="0 0 27 13"><defs><style>.a{fill:#3e3ea2;}</style></defs><path class="a" d="M12.825,109H1.013A.994.994,0,0,1,0,108.025V96.975A.994.994,0,0,1,1.013,96H12.825Zm-5.091-2.95a.5.5,0,0,0,.486.35h.965a.491.491,0,0,0,.479-.644L7.24,98.888a.505.505,0,0,0-.479-.331H5.39a.505.505,0,0,0-.479.331l-2.424,6.868a.491.491,0,0,0,.479.644h.962a.5.5,0,0,0,.487-.353l.385-1.292h2.54l.394,1.3Zm-1.647-5.7s.182.856.33,1.349l.456,1.525H5.266l.467-1.525c.148-.494.33-1.349.33-1.349ZM25.988,109H14.175V96H25.988A.994.994,0,0,1,27,96.975v11.05A.994.994,0,0,1,25.988,109Zm-1.519-9.262h-2.7v-.65a.5.5,0,0,0-.506-.488h-.675a.5.5,0,0,0-.506.488v.65h-2.7a.5.5,0,0,0-.506.487v.65a.5.5,0,0,0,.506.488H22.2a6.288,6.288,0,0,1-1.267,1.755,7.753,7.753,0,0,1-.733-.85.52.52,0,0,0-.675-.14l-.307.177-.274.158a.477.477,0,0,0-.158.7,9.269,9.269,0,0,0,.885,1.045c-.343.253-.71.5-1.1.73a.478.478,0,0,0-.176.658l.335.565a.517.517,0,0,0,.7.174,14.736,14.736,0,0,0,1.5-1.011,14.748,14.748,0,0,0,1.493,1.011.517.517,0,0,0,.705-.173l.335-.565a.478.478,0,0,0-.174-.657q-.569-.339-1.1-.732a7.23,7.23,0,0,0,1.8-2.838h.481a.5.5,0,0,0,.506-.487v-.65A.5.5,0,0,0,24.469,99.738Z" transform="translate(0 -96)"/></svg>