<svg xmlns="http://www.w3.org/2000/svg" xmlns:xlink="http://www.w3.org/1999/xlink" viewBox="0 0 57 58"><defs><style>.a{fill:none;}.b{fill:#4e4eac;}.c{clip-path:url(#a);}.d{fill:url(#b);}.e{clip-path:url(#c);}.f{fill:url(#d);}.g{clip-path:url(#e);}.h{fill:url(#f);}</style><clipPath id="a"><path class="a" d="M34.731-58.655A3.578,3.578,0,0,1,38.368-54.7a4.428,4.428,0,0,1-4.336,3.955A3.578,3.578,0,0,1,30.395-54.7,4.428,4.428,0,0,1,34.731-58.655ZM36.248-45a.986.986,0,0,1,.427.9L35.9-35.289l7.856,16.532a.982.982,0,0,1-.06.951,1,1,0,0,1-.842.459H37.566a1,1,0,0,1-.926-.623L32.2-29.039h-.086c-.692,1.5-1.431,2.845-5.619,11.147a1,1,0,0,1-.891.546h-5.25a1,1,0,0,1-.855-.481.982.982,0,0,1-.023-.975L28.4-35.289,29.5-47.813a.989.989,0,0,1,.568-.808,1,1,0,0,1,.99.08Z" transform="translate(-19.357 58.655)"/></clipPath><linearGradient id="b" x1="0.316" y1="0.503" x2="0.935" y2="0.503" gradientUnits="objectBoundingBox"><stop offset="0" stop-color="#2d2d6f"/><stop offset="0.1" stop-color="#313177"/><stop offset="0.2" stop-color="#363680"/><stop offset="0.3" stop-color="#3a3a88"/><stop offset="0.4" stop-color="#3e3e90"/><stop offset="0.5" stop-color="#424298"/><stop offset="0.6" stop-color="#4646a0"/><stop offset="0.7" stop-color="#4b4ba8"/><stop offset="0.8" stop-color="#4f4fb0"/><stop offset="0.9" stop-color="#5353b8"/><stop offset="1" stop-color="#5757c0"/></linearGradient><clipPath id="c"><path class="a" d="M31.731-58.655A3.578,3.578,0,0,1,35.368-54.7a4.428,4.428,0,0,1-4.336,3.955A3.578,3.578,0,0,1,27.395-54.7,4.428,4.428,0,0,1,31.731-58.655ZM33.248-45a.986.986,0,0,1,.427.9L32.9-35.289l7.856,16.532a.982.982,0,0,1-.06.951,1,1,0,0,1-.842.459H34.566a1,1,0,0,1-.926-.623L29.2-29.039h-.086c-.692,1.5-1.438,2.859-5.619,11.147a1,1,0,0,1-.891.546h-5.25a1,1,0,0,1-.855-.481.982.982,0,0,1-.023-.975L25.4-35.289,26.5-47.813a.989.989,0,0,1,.568-.808,1,1,0,0,1,.99.08Z" transform="translate(-16.357 58.655)"/></clipPath><linearGradient id="d" x1="0.079" y1="0.536" x2="0.691" y2="0.536" gradientUnits="objectBoundingBox"><stop offset="0" stop-color="#ffe174"/><stop offset="0.1" stop-color="#ffdf6d"/><stop offset="0.2" stop-color="#ffdd65"/><stop offset="0.3" stop-color="#ffdb5d"/><stop offset="0.4" stop-color="#ffda55"/><stop offset="0.5" stop-color="#ffd84d"/><stop offset="0.6" stop-color="#ffd646"/><stop offset="0.7" stop-color="#ffd53e"/><stop offset="0.8" stop-color="#ffd336"/><stop offset="0.9" stop-color="#ffd12e"/><stop offset="1" stop-color="#ffd026"/></linearGradient><clipPath id="e"><path class="a" d="M28.731-58.655A3.578,3.578,0,0,1,32.368-54.7a4.428,4.428,0,0,1-4.336,3.955A3.578,3.578,0,0,1,24.395-54.7,4.428,4.428,0,0,1,28.731-58.655ZM30.248-45a.986.986,0,0,1,.427.9L29.9-35.289l7.856,16.532a.982.982,0,0,1-.06.951,1,1,0,0,1-.842.459H31.566a1,1,0,0,1-.926-.623L26.2-29.039h-.086c-.692,1.5-1.383,2.749-5.619,11.148a1,1,0,0,1-.891.545h-5.25a1,1,0,0,1-.855-.481.982.982,0,0,1-.023-.975L22.4-35.289,23.5-47.813a.989.989,0,0,1,.568-.808,1,1,0,0,1,.99.08Z" transform="translate(-13.357 58.655)"/></clipPath><linearGradient id="f" x1="0.08" y1="0.587" x2="0.702" y2="0.587" gradientUnits="objectBoundingBox"><stop offset="0" stop-color="#7e7cf1"/><stop offset="0.1" stop-color="#7875e9"/><stop offset="0.2" stop-color="#716fe1"/><stop offset="0.3" stop-color="#6b69d9"/><stop offset="0.4" stop-color="#6463d1"/><stop offset="0.5" stop-color="#5e5cc9"/><stop offset="0.6" stop-color="#5756c1"/><stop offset="0.7" stop-color="#5150b9"/><stop offset="0.8" stop-color="#4a4ab1"/><stop offset="0.9" stop-color="#4444a9"/><stop offset="1" stop-color="#3d3da2"/></linearGradient></defs><path class="b" d="M8.886-5.154q.012.119.018.273t.006.32q0,.356-.042.783a5.237,5.237,0,0,1-.161.866A4.368,4.368,0,0,1,7.523-.983a3.862,3.862,0,0,1-2.8.872L4.6-.1A5.113,5.113,0,0,1,1.375-1.2,3.869,3.869,0,0,1,0-4.43,4.439,4.439,0,0,1,1.19-7.646,4.3,4.3,0,0,1,4.437-8.88h.12a5.214,5.214,0,0,1,2.314.5A3.484,3.484,0,0,1,8.444-6.863L6.375-5.9h-.12a1.7,1.7,0,0,0-.67-.712,2.071,2.071,0,0,0-1.029-.273,2.08,2.08,0,0,0-1.465.623,2.381,2.381,0,0,0-.628,1.786,2.61,2.61,0,0,0,.628,1.857,2.117,2.117,0,0,0,1.549.694,2,2,0,0,0,1.172-.4,1.692,1.692,0,0,0,.634-1H4.27V-5.154ZM57-.336H54.369l-.454-1.436H51.188L50.721-.336H48.09l2.978-8.306h2.966Zm-36.609,0H17.76l-.454-1.436H14.579L14.112-.336H11.481l2.978-8.306h2.966Zm4.724,0H22.747l1.22-8.306h2.464l1.411,4.865,1.411-4.865h2.464l1.22,8.306H30.569l-.586-4.533L28.655-.336H27.029L25.7-4.869Zm12.8,0H35.544l1.22-8.306h2.464l1.411,4.865L42.05-8.643h2.464l1.22,8.306H43.366L42.78-4.869,41.452-.336H39.826L38.5-4.869ZM52.551-6.531l-.9,2.931h1.794Zm-36.609,0-.9,2.931h1.794Z" transform="translate(0 58.099)"/><g class="c" transform="translate(19.292)"><g transform="translate(-30.764 -11.098)"><path class="d" d="M56.843.088,68.259,55.933,11.435,67.55.018,11.705Z" transform="matrix(0.2, -0.98, 0.98, 0.2, 0, 66.771)"/></g></g><g class="e" transform="translate(16.302)"><g transform="translate(-28.979 -12.263)"><path class="f" d="M12.7,68.569.022,13,56.569.1,69.247,55.669Z" transform="translate(82.353 15.133) rotate(102.851)"/></g></g><g class="g" transform="translate(13.313)"><g transform="translate(-24.137 -10.472)"><path class="h" d="M10.764,67,.016,11.02,56.976.083,67.723,56.061Z" transform="matrix(-0.189, 0.982, -0.982, -0.189, 78.65, 12.534)"/></g></g></svg>