<svg xmlns="http://www.w3.org/2000/svg" viewBox="0 0 16 12.235"><defs><style>.a{fill:#3e3ea2;}</style></defs><g transform="translate(-12 -13.9)"><g transform="translate(12 13.9)"><path class="a" d="M25.217,26.135H14.683A2.7,2.7,0,0,1,12,23.405V16.63a2.7,2.7,0,0,1,2.683-2.73H25.317A2.7,2.7,0,0,1,28,16.63v6.775A2.848,2.848,0,0,1,25.217,26.135ZM14.683,15.012a1.757,1.757,0,0,0-1.689,1.719v6.775a1.757,1.757,0,0,0,1.689,1.719H25.317a1.757,1.757,0,0,0,1.689-1.719V16.731a1.757,1.757,0,0,0-1.689-1.719H14.683Z" transform="translate(-12 -13.9)"/><g transform="translate(0.199 2.629)"><path class="a" d="M27.7,17.41l-6.161,3.64a2.673,2.673,0,0,1-1.59.4,2.877,2.877,0,0,1-1.59-.4L12.2,17.41l.5-.91,6.161,3.64a2.5,2.5,0,0,0,2.087,0l6.161-3.64Z" transform="translate(-12.2 -16.5)"/></g><g transform="translate(0.292 5.43)"><path class="a" d="M0,0,1,.009l.058,6.829-1-.009Z" transform="translate(4.323 0) rotate(39.221)"/></g><g transform="translate(10.511 5.453)"><path class="a" d="M0,0,6.829.058l.009,1L.009,1Z" transform="translate(0.82 0) rotate(50.771)"/></g></g></g></svg>