<svg xmlns="http://www.w3.org/2000/svg" viewBox="0 0 40 40"><defs><style>.a,.d{fill:none;}.a{stroke:#3e3ea2;}.b{fill:#3e3ea2;}.c{stroke:none;}</style></defs><g transform="translate(-0.13 -0.116)"><g class="a" transform="translate(0.13 0.116)"><rect class="c" width="40" height="40" rx="3"/><rect class="d" x="0.5" y="0.5" width="39" height="39" rx="2.5"/></g><path class="b" d="M58.224,56.949a7.206,7.206,0,0,1,5.055,2.179v0a1.046,1.046,0,0,1,1.026-1.12h.151a1.139,1.139,0,0,1,1.125,1.162l0,9.928a.644.644,0,0,0,1.079.569c1.594-1.638,3.5-8.422-.991-12.352a10.757,10.757,0,0,0-12.791-1A9.655,9.655,0,0,0,49.648,67.91c2.152,4.966,8.309,6.448,11.969,4.97,1.853-.748,2.709,1.758.785,2.576-2.908,1.239-11,1.114-14.783-5.436a11.984,11.984,0,0,1,4.357-16.236,13.222,13.222,0,0,1,16.138,2.072c4.307,4.5,4.056,12.925-.145,16.2a2.933,2.933,0,0,1-4.713-2.128l-.02-.709A7.072,7.072,0,0,1,58.224,71.3a7.176,7.176,0,0,1,0-14.351M63,63.889a4.523,4.523,0,0,0-4.7-4.452h-.094c-2.876,0-4.471,2.262-4.471,4.831a4.374,4.374,0,0,0,4.46,4.693,4.679,4.679,0,0,0,4.81-4.511L63,63.889Z" transform="translate(-38.713 -43.656)"/></g></svg>