<svg xmlns="http://www.w3.org/2000/svg" viewBox="0 0 22.855 13.681"><defs><style>.a{fill:#3e3ea2;}</style></defs><g transform="translate(-471.145 -1168.319)"><path class="a" d="M9.695,46.3a.566.566,0,0,1,.57.563v1.125a.566.566,0,0,1-.57.563H7.471a.572.572,0,0,1-.483-.263L5.359,45.738c-.082-.118-.158-.245-.221-.359-.059.114-.13.244-.209.372L3.335,48.288a.572.572,0,0,1-.485.266H.57A.566.566,0,0,1,0,47.991V46.866A.566.566,0,0,1,.57,46.3h.938L3.524,43.4,1.644,40.679H.57A.566.566,0,0,1,0,40.116V38.991a.566.566,0,0,1,.57-.563H3.023a.572.572,0,0,1,.486.269l1.422,2.29c.074.124.144.252.2.365.063-.114.14-.244.222-.37l1.438-2.286a.572.572,0,0,1,.485-.266H9.695a.566.566,0,0,1,.57.563v1.125a.566.566,0,0,1-.57.563h-1L6.82,43.339,8.91,46.3Z" transform="translate(481.476 1133.446)"/><path class="a" d="M2.01,13.131a1.084,1.084,0,0,1-.984-.7L-1.733,6.486c-.254-.547-.448-1,.285-1.341.8-.376.95.093,1.2.64l2.215,4.774L5.847.912a1.16,1.16,0,0,1,.14-.253L6.094.414A.814.814,0,0,1,6.912,0L20.484,0a.412.412,0,0,1,.41.414v.828a.412.412,0,0,1-.41.414L7.325,1.65,2.973,12.484a.981.981,0,0,1-.864.654A.709.709,0,0,1,2.01,13.131Z" transform="translate(473.106 1168.319)"/></g></svg>