<svg xmlns="http://www.w3.org/2000/svg" viewBox="0 0 30 30"><defs><style>.a{fill:#3e3ea2;}.b{fill:#fff;}</style></defs><g transform="translate(-0.058 -0.001)"><path class="a" d="M15.051,30h.015A14.993,14.993,0,0,0,30.058,15.008V15a15,15,0,1,0-30,0v.007A14.993,14.993,0,0,0,15.051,30"/><path class="b" d="M78.041,73.144a6.77,6.77,0,0,1-1.944.533A3.4,3.4,0,0,0,77.586,71.8a6.773,6.773,0,0,1-2.149.821,3.387,3.387,0,0,0-5.767,3.087,9.608,9.608,0,0,1-6.975-3.536,3.388,3.388,0,0,0,1.047,4.518,3.365,3.365,0,0,1-1.533-.423c0,.014,0,.028,0,.043a3.386,3.386,0,0,0,2.715,3.318,3.393,3.393,0,0,1-1.528.058,3.387,3.387,0,0,0,3.161,2.35,6.829,6.829,0,0,1-5.01,1.4,9.624,9.624,0,0,0,14.817-8.108q0-.22-.01-.438a6.877,6.877,0,0,0,1.689-1.752" transform="translate(-54.218 -63.096)"/></g></svg>