<svg xmlns="http://www.w3.org/2000/svg" viewBox="0 0 30 30"><defs><style>.a{fill:#3e3ea2;}.b{fill:#fff;}</style></defs><g transform="translate(-0.188 -0.001)"><path class="a" d="M15.181,30H15.2A14.993,14.993,0,0,0,30.188,15.008V15a15,15,0,1,0-30,0v.007A14.993,14.993,0,0,0,15.181,30"/><path class="b" d="M93.176,71.458V63.144h2.791l.418-3.24H93.176V57.835c0-.938.26-1.577,1.606-1.577H96.5v-2.9a23.03,23.03,0,0,0-2.5-.127,3.9,3.9,0,0,0-4.167,4.283V59.9h-2.8v3.24h2.8v8.314Z" transform="translate(-76.577 -46.937)"/></g></svg>