<svg xmlns="http://www.w3.org/2000/svg" viewBox="0 0 17 13"><defs><style>.a{fill:#231815;}</style></defs><g transform="translate(-11.5 -13.6)"><g transform="translate(11.5 13.6)"><path class="a" d="M27,26.6a1.274,1.274,0,0,1-1-.406l-1.6-1.422H15a3.571,3.571,0,0,1-3.5-3.555V17.155A3.571,3.571,0,0,1,15,13.6H25a3.571,3.571,0,0,1,3.5,3.555v7.922A1.55,1.55,0,0,1,27,26.6ZM15,14.616a2.5,2.5,0,0,0-2.5,2.539v4.063A2.5,2.5,0,0,0,15,23.756h9.6a.364.364,0,0,1,.3.1l1.8,1.625a.473.473,0,0,0,.8-.406V17.155A2.5,2.5,0,0,0,25,14.616H15Z" transform="translate(-11.5 -13.6)"/></g></g></svg>