<svg xmlns="http://www.w3.org/2000/svg" viewBox="0 0 30 29.992"><defs><style>.a{fill:#3e3ea2;}.b{fill:#fff;}</style></defs><g transform="translate(-0.207 -0.115)"><path class="a" d="M15.2,30.108h.015a15,15,0,1,0-.015,0"/><path class="b" d="M95.13,61.827a1.746,1.746,0,1,1-1.746,1.746,1.748,1.748,0,0,1,1.746-1.746m0,5.962a4.217,4.217,0,1,0-4.217-4.216,4.221,4.221,0,0,0,4.217,4.216" transform="translate(-79.982 -52.237)"/><path class="b" d="M92.992,135.2a7.9,7.9,0,0,0,2.449-1.014,1.236,1.236,0,0,0-1.316-2.092,5.355,5.355,0,0,1-5.678,0,1.236,1.236,0,0,0-1.316,2.092,7.913,7.913,0,0,0,2.449,1.014l-2.358,2.358a1.236,1.236,0,0,0,1.748,1.747l2.316-2.317,2.318,2.317a1.235,1.235,0,0,0,1.747-1.747Z" transform="translate(-76.138 -116.208)"/></g></svg>