<svg xmlns="http://www.w3.org/2000/svg" viewBox="0 0 13 13"><defs><style>.a{fill:#3e3ea2;}.b{fill:#fff;}</style></defs><g transform="translate(-786 -349)"><circle class="a" cx="6.5" cy="6.5" r="6.5" transform="translate(786 349)"/><path class="b" d="M11.506,8a3.488,3.488,0,0,1,2.411.969l.5-.5A.339.339,0,0,1,15,8.7V10.6a.339.339,0,0,1-.339.339H12.769a.339.339,0,0,1-.24-.578l.589-.589a2.371,2.371,0,1,0-.058,3.516.169.169,0,0,1,.231.008l.56.56a.17.17,0,0,1-.007.246A3.5,3.5,0,1,1,11.506,8Z" transform="translate(781 344)"/></g></svg>