<svg xmlns="http://www.w3.org/2000/svg" viewBox="0 0 30 30"><defs><style>.a{fill:#3e3ea2;}.b{fill:#fff;fill-rule:evenodd;}</style></defs><g transform="translate(-0.038 -0.001)"><path class="a" d="M15.031,30h.015A14.993,14.993,0,0,0,30.038,15.008V15a15,15,0,1,0-30,0v.007A14.993,14.993,0,0,0,15.031,30"/><path class="b" d="M52.764,96.222H53.9a.961.961,0,0,0,.519-.227.833.833,0,0,0,.156-.5s-.022-1.526.686-1.75,1.595,1.475,2.545,2.127a1.8,1.8,0,0,0,1.264.385l2.541-.036s1.329-.082.7-1.127a8.5,8.5,0,0,0-1.889-2.186c-1.593-1.478-1.38-1.239.539-3.8C62.13,87.554,62.6,86.6,62.451,86.2c-.139-.388-1-.286-1-.286l-2.861.018a.65.65,0,0,0-.369.065.8.8,0,0,0-.252.307,16.593,16.593,0,0,1-1.057,2.23c-1.274,2.163-1.783,2.277-1.991,2.143-.484-.313-.363-1.257-.363-1.928,0-2.1.318-2.97-.619-3.2a4.9,4.9,0,0,0-1.335-.133,6.172,6.172,0,0,0-2.374.243c-.325.159-.577.515-.423.535a1.283,1.283,0,0,1,.844.424,2.759,2.759,0,0,1,.283,1.295s.169,2.468-.393,2.774c-.386.21-.914-.219-2.05-2.182a18.247,18.247,0,0,1-1.021-2.116.851.851,0,0,0-.236-.319,1.181,1.181,0,0,0-.439-.177l-2.719.018s-.408.011-.558.189c-.133.158-.011.484-.011.484s2.128,4.979,4.538,7.488a6.529,6.529,0,0,0,4.719,2.15" transform="translate(-38.285 -75.315)"/></g></svg>