<svg xmlns="http://www.w3.org/2000/svg" viewBox="0 0 20 20"><defs><style>.a{fill:#3e3ea2;}</style></defs><g transform="translate(-0.001)"><path class="a" d="M10.064,1.161a8.9,8.9,0,1,0,8.9,8.9,8.9,8.9,0,0,0-8.9-8.9Zm0,18.581a9.677,9.677,0,1,1,9.677-9.677v.012a9.664,9.664,0,0,1-9.664,9.664h-.013Z" transform="translate(-0.064 -0.065)"/><path class="a" d="M10,20h0a10.05,10.05,0,1,1,7.057-2.942A9.989,9.989,0,0,1,10,20ZM10,.647a9.358,9.358,0,1,0,6.614,2.741A9.365,9.365,0,0,0,10,.647Zm0,18.579A9.225,9.225,0,1,1,19.224,10,9.235,9.235,0,0,1,10,19.226ZM6.815,12.363a.714.714,0,0,0-.68.93l.006.021A3.968,3.968,0,0,0,10,15.483l0,0c1.8,0,3.4-.923,3.8-2.193V13.3a.714.714,0,0,0,.042-.244.7.7,0,0,0-.494-.666.67.67,0,0,0-.175-.02.732.732,0,0,0-.343.084l0,0a.649.649,0,0,0-.318.385l0,.013A2.69,2.69,0,0,1,10,14.066c-.824-.016-2.274-.549-2.509-1.225l0-.006A.718.718,0,0,0,6.815,12.363Zm6.917-6.68A1.737,1.737,0,0,0,12,7.42v.011a1.737,1.737,0,0,0,1.733,1.737h.015a1.738,1.738,0,0,0,1.737-1.737V7.425a1.774,1.774,0,0,0-1.743-1.742Zm-7.414,0A1.742,1.742,0,0,0,4.58,7.425v.006A1.737,1.737,0,0,0,6.313,9.168h.015A1.738,1.738,0,0,0,8.064,7.431V7.425a1.746,1.746,0,0,0-.514-1.23A1.726,1.726,0,0,0,6.319,5.684Z" transform="translate(0.001)"/></g></svg>