<svg xmlns="http://www.w3.org/2000/svg" viewBox="0 0 30 30"><defs><style>.a{fill:#3e3ea2;}.b{fill:#fff;fill-rule:evenodd;}</style></defs><g transform="translate(-0.208 -0.001)"><path class="a" d="M15.2,30h.015A14.993,14.993,0,0,0,30.208,15.008V15a15,15,0,1,0-30,0v.007A14.993,14.993,0,0,0,15.2,30"/><path class="b" d="M161.262,104.63v-2.023h-1.443v2.023H157.8v1.443h2.023V108.1h1.443v-2.023h2.023V104.63Z" transform="translate(-138.957 -90.475)"/><path class="b" d="M55.744,83.876v2.313h3.1a2.644,2.644,0,0,1-.635,1.309,3.433,3.433,0,0,1-4.885-.023,3.514,3.514,0,0,1,.032-4.912,3.273,3.273,0,0,1,4.582-.118l0,0,1.689-1.689a5.788,5.788,0,0,0-8.012,8.351,5.852,5.852,0,0,0,8.256.038A6.215,6.215,0,0,0,61.2,83.876H55.744Z" transform="translate(-43.854 -69.874)"/></g></svg>