<svg xmlns="http://www.w3.org/2000/svg" viewBox="0 0 15 15"><defs><style>.a{fill:#fff;}</style></defs><g transform="translate(-11.5 -11.5)"><g transform="translate(11.5 11.5)"><path class="a" d="M19,26.5A7.5,7.5,0,1,1,26.5,19,7.494,7.494,0,0,1,19,26.5Zm0-14.118A6.618,6.618,0,1,0,25.618,19,6.666,6.666,0,0,0,19,12.382Z" transform="translate(-11.5 -11.5)"/><g transform="translate(7.059 4.412)"><path class="a" d="M21.706,19.912H20.471a.979.979,0,0,1-.971-.971v-3a.441.441,0,1,1,.882,0v3a.086.086,0,0,0,.088.088h1.235a.441.441,0,0,1,0,.882Z" transform="translate(-19.5 -15.5)"/></g></g></g></svg>