<svg xmlns="http://www.w3.org/2000/svg" viewBox="0 0 18 11"><g transform="translate(-10.95 -14.6)"><g transform="translate(10.95 14.6)"><path d="M19.95,25.6c-3.779,0-6.961-2.725-8.552-4.339a1.729,1.729,0,0,1,0-2.321c1.591-1.615,4.773-4.339,8.552-4.339s6.961,2.725,8.552,4.339a1.729,1.729,0,0,1,0,2.321C26.911,22.875,23.729,25.6,19.95,25.6Zm0-10.092c-3.58,0-6.663,2.826-7.856,4.037a.571.571,0,0,0,0,.908c1.193,1.211,4.276,4.037,7.856,4.037s6.663-2.826,7.856-4.037a.571.571,0,0,0,0-.908C26.613,18.334,23.53,15.508,19.95,15.508Z" transform="translate(-10.95 -14.6)"/></g><g transform="translate(17.464 17.527)"><path d="M19.986,22.546a2.523,2.523,0,1,1,2.486-2.523A2.48,2.48,0,0,1,19.986,22.546Zm0-4.037a1.514,1.514,0,1,0,1.492,1.514A1.541,1.541,0,0,0,19.986,18.509Z" transform="translate(-17.5 -17.5)"/></g></g></svg>