<svg xmlns="http://www.w3.org/2000/svg" viewBox="0 0 13 13"><defs><style>.a{fill:#3e3ea2;}.b{fill:#fff;}</style></defs><g transform="translate(-786 -290)"><circle class="a" cx="6.5" cy="6.5" r="6.5" transform="translate(786 290)"/><path class="b" d="M7,36.1V34.9a.374.374,0,0,0-.375-.375H4.472V32.375A.374.374,0,0,0,4.1,32H2.9a.374.374,0,0,0-.375.375v2.153H.375A.374.374,0,0,0,0,34.9V36.1a.374.374,0,0,0,.375.375H2.528v2.153A.374.374,0,0,0,2.9,39H4.1a.374.374,0,0,0,.375-.375V36.472H6.625A.374.374,0,0,0,7,36.1Z" transform="translate(789 261)"/></g></svg>