<svg xmlns="http://www.w3.org/2000/svg" viewBox="0 0 13 15"><defs><style>.a{fill:#fff;}</style></defs><g transform="translate(-13.7 -11.6)"><g transform="translate(13.7 11.6)"><g transform="translate(2.481)"><path class="a" d="M20.169,20.144A4.126,4.126,0,0,1,16.2,15.872,4.126,4.126,0,0,1,20.169,11.6a4.126,4.126,0,0,1,3.969,4.272A4.126,4.126,0,0,1,20.169,20.144Zm0-7.595a3.156,3.156,0,0,0-2.977,3.323,3.156,3.156,0,0,0,2.977,3.323,3.156,3.156,0,0,0,2.977-3.323A3.156,3.156,0,0,0,20.169,12.549Z" transform="translate(-16.2 -11.6)"/></g><g transform="translate(7.74 7.12)"><path class="a" d="M26.164,26.98a.459.459,0,0,1-.5-.475V23.277a3.276,3.276,0,0,0-3.374-3.228H22a.475.475,0,1,1,0-.949h.4a4.313,4.313,0,0,1,4.366,4.177v3.228A.623.623,0,0,1,26.164,26.98Z" transform="translate(-21.5 -19.1)"/></g><g transform="translate(0 7.12)"><path class="a" d="M14.2,26.98a.459.459,0,0,1-.5-.475V23.277A4.313,4.313,0,0,1,18.066,19.1h.4a.475.475,0,1,1,0,.949h-.4a3.276,3.276,0,0,0-3.374,3.228v3.228A.459.459,0,0,1,14.2,26.98Z" transform="translate(-13.7 -19.1)"/></g></g></g></svg>