<svg xmlns="http://www.w3.org/2000/svg" viewBox="0 0 30 30"><defs><style>.a{fill:#3e3ea2;}</style></defs><g transform="translate(-766.998 -90.999)"><path class="a" d="M-1058-14360a14.906,14.906,0,0,1-10.608-4.393A14.9,14.9,0,0,1-1073-14375a14.906,14.906,0,0,1,4.394-10.608A14.906,14.906,0,0,1-1058-14390a14.9,14.9,0,0,1,10.606,4.394A14.906,14.906,0,0,1-1043-14375a14.9,14.9,0,0,1-4.392,10.605A14.9,14.9,0,0,1-1058-14360Zm-4.471-13.081h-.65a2.588,2.588,0,0,0-2.546,2.622v.563a.555.555,0,0,0,.545.563h10.545a.555.555,0,0,0,.545-.563v-.45a2.887,2.887,0,0,0-.065-.7h-.661a1.163,1.163,0,0,1-1.145-1.178v-.762a2.348,2.348,0,0,0-.675-.095h-.646a4.98,4.98,0,0,1-2.625.751A4.965,4.965,0,0,1-1062.471-14373.082Zm7.714-.538a.319.319,0,0,0-.314.322v1.072a.318.318,0,0,0,.314.321h1.557v1.607a.318.318,0,0,0,.314.321h1.036a.318.318,0,0,0,.314-.321v-1.607h1.557a.317.317,0,0,0,.311-.321v-1.072a.317.317,0,0,0-.311-.322h-1.557v-1.606a.318.318,0,0,0-.314-.321h-1.036a.318.318,0,0,0-.314.321v1.606Zm-5.092-7.714a3.7,3.7,0,0,0-3.637,3.753,3.7,3.7,0,0,0,3.637,3.748,3.7,3.7,0,0,0,3.637-3.748A3.7,3.7,0,0,0-1059.849-14381.334Z" transform="translate(1840 14481)"/></g></svg>