<svg xmlns="http://www.w3.org/2000/svg" viewBox="0 0 11 11"><defs><style>.a{fill:#3e3ea2;}</style></defs><g transform="translate(-11.5 -11.5)"><g transform="translate(11.5 11.5)"><path class="a" d="M17,22.5A5.5,5.5,0,1,1,22.5,17,5.5,5.5,0,0,1,17,22.5Zm0-10.353A4.853,4.853,0,1,0,21.853,17,4.888,4.888,0,0,0,17,12.147Z" transform="translate(-11.5 -11.5)"/><g transform="translate(5.176 3.235)"><path class="a" d="M21.118,18.735h-.906a.718.718,0,0,1-.712-.712v-2.2a.324.324,0,1,1,.647,0v2.2a.063.063,0,0,0,.065.065h.906a.324.324,0,0,1,0,.647Z" transform="translate(-19.5 -15.5)"/></g></g></g></svg>