<svg xmlns="http://www.w3.org/2000/svg" xmlns:xlink="http://www.w3.org/1999/xlink" viewBox="0 0 40 40"><defs><style>.a{fill:url(#a);}</style><linearGradient id="a" x1="0.5" x2="0.5" y2="1" gradientUnits="objectBoundingBox"><stop offset="0" stop-color="#7f7cf1"/><stop offset="1" stop-color="#3e3ea2"/></linearGradient></defs><path class="a" d="M31.2,22.571a14.062,14.062,0,1,0-22.395,0A10,10,0,0,0,0,32.5v2.227A5.279,5.279,0,0,0,5.273,40H34.727A5.279,5.279,0,0,0,40,34.727V32.5A10,10,0,0,0,31.2,22.571ZM20,3.75A10.313,10.313,0,1,1,9.688,14.063,10.312,10.312,0,0,1,20,3.75ZM36.25,34.727a1.523,1.523,0,0,1-1.523,1.523H5.273A1.523,1.523,0,0,1,3.75,34.727V32.5A6.25,6.25,0,0,1,10,26.25h2.98a14.07,14.07,0,0,0,14.041,0H30a6.25,6.25,0,0,1,6.25,6.25Z"/></svg>