<svg xmlns="http://www.w3.org/2000/svg" xmlns:xlink="http://www.w3.org/1999/xlink" viewBox="0 0 17 15"><defs><style>.a{opacity:0.7;fill:url(#a);}</style><linearGradient id="a" x1="0.5" x2="0.5" y2="1" gradientUnits="objectBoundingBox"><stop offset="0" stop-color="#7f7cf1"/><stop offset="1" stop-color="#3e3ea2"/></linearGradient></defs><path class="a" d="M.276,37.285,6.12,32.2a.8.8,0,0,1,1.318.608v2.68C12.771,35.546,17,36.624,17,41.721a6.86,6.86,0,0,1-2.767,5.161.593.593,0,0,1-.932-.624c1.506-4.855-.714-6.144-5.863-6.219v2.944a.8.8,0,0,1-1.318.608L.276,38.5a.808.808,0,0,1,0-1.216Z" transform="translate(0 -32)"/></svg>