<svg xmlns="http://www.w3.org/2000/svg" viewBox="0 0 30 30"><defs><style>.a{fill:#3e3ea2;}</style></defs><g transform="translate(-767 -90.999)"><path class="a" d="M-1058-14296a14.9,14.9,0,0,1-10.606-4.394A14.9,14.9,0,0,1-1073-14311a14.9,14.9,0,0,1,4.393-10.606A14.9,14.9,0,0,1-1058-14326a14.9,14.9,0,0,1,10.606,4.394A14.9,14.9,0,0,1-1043-14311a14.9,14.9,0,0,1-4.394,10.606A14.9,14.9,0,0,1-1058-14296Zm-6.342-16.732a.636.636,0,0,0-.658.61v2.449a.637.637,0,0,0,.658.611h3.718v2.448a.634.634,0,0,0,.661.614.677.677,0,0,0,.46-.18l4.595-4.285a.6.6,0,0,0,.189-.437.59.59,0,0,0-.189-.43l-4.595-4.285a.672.672,0,0,0-.459-.179.635.635,0,0,0-.663.613v2.449Zm8.42,4.9a.317.317,0,0,0-.327.306v1.021a.317.317,0,0,0,.327.3h2.3a2.544,2.544,0,0,0,2.625-2.448v-4.9a2.542,2.542,0,0,0-2.625-2.444h-2.3a.317.317,0,0,0-.327.306v1.018a.319.319,0,0,0,.327.309h2.3a.846.846,0,0,1,.874.813v4.9a.847.847,0,0,1-.874.816Z" transform="translate(1840 14417)"/></g></svg>