<svg xmlns="http://www.w3.org/2000/svg" viewBox="0 0 40 40"><defs><style>.a,.d{fill:none;}.a{stroke:#3e3ea2;}.b{fill:#3e3ea2;}.c{stroke:none;}</style></defs><g transform="translate(-0.039 -0.116)"><g class="a" transform="translate(0.039 0.116)"><rect class="c" width="40" height="40" rx="3"/><rect class="d" x="0.5" y="0.5" width="39" height="39" rx="2.5"/></g><path class="b" d="M90.645,50.115a2.771,2.771,0,1,1-2.772,2.772,2.774,2.774,0,0,1,2.772-2.772m0,9.463a6.693,6.693,0,1,0-6.694-6.692,6.7,6.7,0,0,0,6.694,6.692" transform="translate(-70.684 -38.813)"/><path class="b" d="M88.98,137.792a12.536,12.536,0,0,0,3.887-1.61,1.962,1.962,0,0,0-2.089-3.321,8.5,8.5,0,0,1-9.012,0,1.962,1.962,0,0,0-2.089,3.321,12.555,12.555,0,0,0,3.887,1.61l-3.742,3.742a1.961,1.961,0,0,0,2.775,2.773l3.676-3.677,3.679,3.677a1.961,1.961,0,1,0,2.772-2.773Z" transform="translate(-66.312 -111.566)"/></g></svg>