<svg xmlns="http://www.w3.org/2000/svg" viewBox="0 0 11 12"><defs><style>.a{fill:#3e3ea2;}</style></defs><path class="a" d="M14.282,5.263a.459.459,0,0,1,0,.659l-5.3,5.235A4.08,4.08,0,0,1,6.148,12.5a2.687,2.687,0,0,1-2.623-2.018A3.662,3.662,0,0,1,4.71,6.938L10.621,1.1a2.141,2.141,0,0,1,3.062.119,2,2,0,0,1,.053,2.967L7.785,10.063a1.488,1.488,0,0,1-2.13.264,1.471,1.471,0,0,1,.28-2.11l4.02-3.983a.469.469,0,0,1,.666,0,.459.459,0,0,1,0,.659L6.574,8.876c-.346.343-.4.673-.28.8s.466.079.812-.264l5.951-5.895A1.1,1.1,0,0,0,13,1.86a1.189,1.189,0,0,0-1.744-.105L5.376,7.6a2.751,2.751,0,0,0-.945,2.651,1.756,1.756,0,0,0,1.251,1.266A2.832,2.832,0,0,0,8.331,10.5l5.3-5.248a.492.492,0,0,1,.652.013Z" transform="translate(-3.422 -0.502)"/></svg>