<svg xmlns="http://www.w3.org/2000/svg" viewBox="0 0 53 47.565"><defs><style>.a,.g{fill:#3e3ea2;}.b,.d,.e,.h{fill:none;}.c{fill:#fff;}.d,.e{stroke:#3e3ea2;}.d{stroke-width:1.5px;}.e{stroke-linecap:round;stroke-linejoin:round;}.f,.g{stroke:none;}</style></defs><g transform="translate(-768 -587.436)"><g transform="translate(-9.003 -15)"><g transform="translate(-1897.076 -3961.1)"><g transform="translate(2679.844 4565.101)"><path class="a" d="M14.51,15.189A6.422,6.422,0,0,1,8,8.8V5.257A4.312,4.312,0,0,1,12.34,1h4.34a4.312,4.312,0,0,1,4.34,4.257V8.8A6.421,6.421,0,0,1,14.51,15.189ZM12.34,2.419A2.874,2.874,0,0,0,9.447,5.257V8.8A4.984,4.984,0,0,0,14.51,13.77,4.984,4.984,0,0,0,19.573,8.8V5.257A2.874,2.874,0,0,0,16.68,2.419Z" transform="translate(-8 -1)"/><path class="a" d="M20.086,10.165A6.124,6.124,0,0,1,17.5,7.906a1.139,1.139,0,0,0-.936-.494H12.674a1.033,1.033,0,0,0-.864.424,7.03,7.03,0,0,1-2.663,2.329L8.5,8.894a5.553,5.553,0,0,0,2.087-1.765A2.518,2.518,0,0,1,12.674,6H16.56a2.64,2.64,0,0,1,2.087,1.059,5.216,5.216,0,0,0,2.087,1.835Z" transform="translate(-8.005 -3.503)"/></g><g class="b" transform="matrix(0.956, 0.292, -0.292, 0.956, 2685.522, 4599.445)"><path class="f" d="M.042.075,14.176,0l-.042,7.779L0,7.855Z"/><path class="g" d="M 1.507933259010315 6.346498966217041 L 12.6413459777832 6.286678791046143 L 12.66743659973145 1.507542371749878 L 1.534024357795715 1.567354679107666 L 1.507933259010315 6.346498966217041 M -0.0003248918219469488 7.854626178741455 L 0.04214510694146156 0.07534626126289368 L 14.17569541931152 -0.0005837417556904256 L 14.133225440979 7.778686046600342 L -0.0003248918219469488 7.854626178741455 Z"/></g><g class="c" transform="matrix(0.951, -0.309, 0.309, 0.951, 2674.079, 4602.549)"><path class="f" d="M 13.42113780975342 7.10634183883667 L 0.7903753519058228 7.034995555877686 L 0.7543415427207947 0.7542718648910522 L 13.38510322570801 0.8256184458732605 L 13.42113780975342 7.10634183883667 Z"/><path class="g" d="M 12.6667947769165 6.352066993713379 L 12.63936805725098 1.571419954299927 L 1.508683681488037 1.508546710014343 L 1.536111235618591 6.289193630218506 L 12.6667947769165 6.352066993713379 M 14.17547988891602 7.860616683959961 L 0.0446394681930542 7.780797004699707 L -5.323791469891148e-07 -3.08853145725152e-06 L 14.13083934783936 0.07981691509485245 L 14.17547988891602 7.860616683959961 Z"/></g><path class="d" d="M2678.537,4699.936l5.755-7.429" transform="translate(-2.867 -96.951)"/><path class="d" d="M2756.088,4702.891l-6.216-8.467" transform="translate(-58.607 -98.888)"/><rect class="a" width="12.77" height="1.447" transform="translate(2679.872 4596.098) rotate(-90)"/><rect class="a" width="12.77" height="1.447" transform="translate(2691.629 4596.098) rotate(-90)"/><g class="d" transform="translate(2674.78 4578.492)"><path class="f" d="M7,0h9.275a7,7,0,0,1,7,7v6.121a5,5,0,0,1-5,5H5a5,5,0,0,1-5-5V7A7,7,0,0,1,7,0Z"/><path class="h" d="M7,.75h9.275A6.25,6.25,0,0,1,22.525,7v6.121a4.25,4.25,0,0,1-4.25,4.25H5a4.25,4.25,0,0,1-4.25-4.25V7A6.25,6.25,0,0,1,7,.75Z"/></g><path class="d" d="M2684.3,4600.783l1.942,5.764" transform="translate(0.024 -0.612)"/><path class="a" d="M15.4,23.2l-5-3.1.909-.9L15.4,21.735,19.491,19.2l.909.9Z" transform="translate(2670.679 4559.9)"/></g></g><g transform="translate(-23.612 -15)"><g transform="translate(821.612 602.436)"><path class="a" d="M23.775-117.367a.253.253,0,0,1,.026-.036l3.592-3.578a.188.188,0,0,1,.159-.066h7.184l.029,0,.025.007a.206.206,0,0,1,.17.215v7.155a.191.191,0,0,1-.043.131l-.01.014-.012.013h0c-1.15,1.238-2.395,2.385-3.592,3.578a.2.2,0,0,1-.04.028.246.246,0,0,1-.119.037h-4.82a.18.18,0,0,1-.211,0H23.96a.231.231,0,0,1-.224-.224v-7.156A.245.245,0,0,1,23.775-117.367Zm.41,7.054h1.773v-1.8H24.184Zm2.222,0H28.6v-1.8h-2.19Zm2.639,0h1.873v-1.8H29.046Zm3.2-2.819q-.439.434-.874.87v1.608q.431-.449.874-.887Zm1.189-1.179q-.368.37-.74.736v1.592q.369-.361.74-.72Zm-7.474,1.73v-2.04H24.184v2.061C24.775-112.561,25.366-112.57,25.957-112.58Zm4.962.01v-2.05H29.046v2C29.67-112.613,30.295-112.6,30.919-112.57Zm-2.322-.047v-2h-2.19v2.031C27.136-112.6,27.867-112.615,28.6-112.617Zm3.645-3.009q-.439.434-.874.871v1.827q.431-.456.874-.9Zm2.269.2q-.312.332-.631.657v1.626q.317-.309.631-.62Zm-1.08-1.383q-.368.369-.74.736v1.791q.369-.367.74-.732Zm-7.474,1.716v-1.932H24.184v1.954C24.775-115.069,25.366-115.079,25.957-115.089Zm4.962.01v-1.942H29.046v1.9C29.67-115.122,30.295-115.109,30.919-115.079Zm-2.322-.047v-1.9h-2.19v1.924C27.136-115.111,27.867-115.124,28.6-115.126Zm3.645-2.883q-.439.427-.874.857v1.729q.431-.456.874-.9Zm2.269.092q-.312.332-.631.657v1.8q.317-.314.631-.631Zm-1.08-1.252q-.369.364-.742.725c0,.007,0,.014,0,.021v1.648q.369-.367.74-.732Zm-8.042.815-.886.882c.533,0,1.067-.013,1.6-.023q.387-.429.787-.846H25.452A.2.2,0,0,1,25.389-118.353Zm6.5.014h-1.73q-.414.407-.827.815c.574.006,1.149.021,1.722.051Q31.461-117.913,31.886-118.339Zm-2.418,0H27.575q-.414.416-.826.834c.649-.012,1.3-.021,1.945-.022Q29.075-117.939,29.468-118.339Zm5.043-1.924q-.312.327-.631.647v1.666q.317-.314.631-.631Zm-7.946.74-.739.736c.506,0,1.011-.01,1.517-.019q.348-.356.7-.71H26.608A.2.2,0,0,1,26.564-119.523Zm6.515.007H31.343q-.337.34-.679.676c.559.005,1.118.019,1.676.047Q32.708-119.156,33.08-119.515Zm-2.432,0H28.732q-.339.351-.682.7c.639-.011,1.277-.021,1.916-.023Q30.305-119.18,30.648-119.515ZM29.115-120.6h-1.47l-.637.635c.5,0,1-.01,1.5-.019Q28.811-120.29,29.115-120.6Zm5.077,0H32.38l0,0q-.27.293-.547.581c.571.005,1.142.02,1.713.049Q33.869-120.282,34.191-120.6Zm-2.443,0h-2q-.275.305-.557.6c.657-.012,1.314-.022,1.971-.023Q31.455-120.308,31.748-120.6Z" transform="translate(-18.164 156.831)"/><g transform="translate(0 0)"><path class="a" d="M22.61-68.18H22.7a.324.324,0,0,1,.3.341v14.692c-.018.283-.13.392-.259.4L21.53-51.539a.254.254,0,0,1-.032.032L16.72-46.748c-.044.159-.135.226-.234.234l-1.567,1.56c-.19.172-.344.176-.445.1H11.918a.271.271,0,0,1-.332,0H8.939a.276.276,0,0,1-.343,0H.4A.363.363,0,0,1,.057-45.2v-8.4a.268.268,0,0,1,0-.331v-5.963a.376.376,0,0,1,0-.038.341.341,0,0,1,.1-.2l5.009-4.99a.275.275,0,0,1,.09-.089l2.824-2.813a.284.284,0,0,1,.12-.112c.053-.043.082-.047.177-.045H22.61ZM.746-45.54H2.521v-2.228H.746Zm2.464,0H5.5v-2.228H3.21Zm2.979,0H8.374v-2.228H6.189Zm2.874,0h2.29v-2.228H9.063Zm2.979,0h2.29v-2.228h-2.29Zm2.979-2.429v1.944l1.038-1.034V-49Zm1.727-1.72v1.944l1.038-1.034v-1.944Zm-16,1.235H2.521v-2.095H.746Zm11.3,0h2.29v-2.095h-2.29Zm-8.832,0H5.5v-2.095H3.21Zm2.979,0H8.374v-2.095H6.189Zm2.874,0h2.29v-2.095H9.063Zm5.957-2.3v1.811l1.038-1.034v-1.811Zm3.454-.659v1.944l.8-.8v-1.944ZM16.747-52.47v1.811l1.038-1.034V-53.5Zm3.216-.423v1.944l.98-.976v-1.944ZM.746-51.235H2.521v-2.237H.746Zm5.443,0H8.374v-2.237H6.189Zm5.853,0h2.29v-2.237h-2.29Zm-2.979,0h2.29v-2.237H9.063Zm-5.853,0H5.5v-2.237H3.21Zm11.81-2.438v1.953l1.038-1.034v-1.953Zm3.454-.517v1.811l.8-.8v-1.811Zm3.158-.364v1.944l.68-.677v-1.944Zm-4.885-.839v1.953l1.038-1.034v-1.953Zm3.216-.28v1.811l.98-.976v-1.811ZM.746-54.158H2.521v-2.321H.746Zm11.3,0h2.29v-2.321h-2.29Zm-8.832,0H5.5v-2.321H3.21Zm2.979,0H8.374v-2.321H6.189Zm2.874,0h2.29v-2.321H9.063ZM15.02-56.68v2.037l1.038-1.034v-2.037Zm3.454-.433v1.953l.8-.8v-1.953Zm3.158-.222v1.811l.68-.677v-1.811ZM16.747-58.4v2.037L17.785-57.4v-2.037Zm3.216-.2v1.953l.98-.976v-1.953ZM.746-57.165H2.521v-2.381H.746Zm2.464,0H5.5v-2.381H3.21Zm5.853,0h2.29v-2.381H9.063Zm2.979,0h2.29v-2.381h-2.29Zm-5.853,0H8.374v-2.381H6.189Zm8.832-2.582v2.1l1.038-1.034v-2.1Zm3.454-.374h0v2.037l.8-.8v-2.037Zm3.157-.138v1.953l.68-.677v-1.953Zm-4.885-1.208v2.1L17.785-60.4v-2.1Zm3.216-.137v2.037l.98-.976v-2.037Zm-17.682.328L1.233-60.232h1.49l1.038-1.034H2.368A.668.668,0,0,1,2.281-61.276Zm2.454.01L3.7-60.232h2L6.74-61.265Zm2.979,0L6.676-60.232h2l1.038-1.034Zm2.979,0L9.654-60.232h1.9l1.038-1.034Zm2.874,0-1.038,1.034h2l1.038-1.034Zm4.907.176.8-.8v-2.1l-.817.814a.544.544,0,0,1,.016.106Zm3.537-2.553-.379.378v2.037l.68-.677v-2.037Zm-15.577.686-1.01,1.006h2l1.01-1.006Zm8.832,0-1.01,1.006h2l1.01-1.006Zm-2.874,0-1.01,1.006h1.9l1.01-1.006Zm-2.979,0L8.4-61.952h2l1.01-1.006Zm-5.443,0L2.96-61.952H4.45l1.01-1.006ZM19.963-64.67v2.1l.98-.976v-2.1Zm-3.067.088-.943.939h2l.943-.939Zm-2.874,0-.943.939h1.9l.943-.939Zm-2.979,0-.943.939h2l.943-.939Zm-5.443,0-.943.939h1.49l.943-.939Zm2.464,0-.943.939h2l.943-.939Zm13.567-1.75v2.1l.68-.677v-2.1Zm-2.044,1.066.945-.941h-2l-.943.939h1.908l.043,0,.011,0Zm-3.934-.941-.943.939h1.9l.943-.939Zm-2.979,0-.943.939h2l.943-.939Zm-5.443,0-.943.939h1.49l.943-.939Zm2.464,0-.943.939h2l.943-.939Zm9.52-.686h2l.6-.6h-2Zm-8.832,0h2l.6-.6h-2Zm-2.464,0h1.49l.605-.6H8.527Zm8.421,0h1.9l.6-.6h-1.9Zm-2.979,0h2l.6-.6h-2Z" transform="translate(0 68.18)"/></g></g><path class="e" d="M0,5.092,2.556,7.129,5.112,5.092M2.556,7.129V0" transform="translate(835.57 636.018) rotate(180)"/></g></g></svg>