<svg xmlns="http://www.w3.org/2000/svg" viewBox="0 0 24 24"><defs><style>.a{fill:#3e3ea2;fill-rule:evenodd;}</style></defs><path class="a" d="M12-230.391a12.006,12.006,0,0,1,12,12,12.006,12.006,0,0,1-12,12,12.006,12.006,0,0,1-12-12A12.006,12.006,0,0,1,12-230.391Zm.617,7.46a3.2,3.2,0,0,1,.185-2.235,3.206,3.206,0,0,1,2.788-1.771h.061a3.241,3.241,0,0,1,3.075,2.58,3.258,3.258,0,0,1-1.87,3.486,3.213,3.213,0,0,1-3.4-.624l-.064-.064-4.179,2.446q.04.138.067.28a3.066,3.066,0,0,1-.084,1.424l4.2,2.457a3.205,3.205,0,0,1,2.188-.936h.061a3.241,3.241,0,0,1,3.075,2.58,3.258,3.258,0,0,1-1.87,3.486,3.213,3.213,0,0,1-3.4-.624,3.263,3.263,0,0,1-.854-3.145l-4.2-2.453a3.009,3.009,0,0,1-1,.7,3.213,3.213,0,0,1-3.4-.624,3.245,3.245,0,0,1-.665-3.654,3.206,3.206,0,0,1,2.776-1.788h.081a3.2,3.2,0,0,1,2.194.948Z" transform="translate(0 230.391)"/></svg>