<svg xmlns="http://www.w3.org/2000/svg" viewBox="0 0 21 21"><defs><style>.a{fill:#3e3ea2;}</style></defs><path class="a" d="M23.082,15.79h5.565a10.556,10.556,0,0,1,0,5.419H23.082A22.987,22.987,0,0,0,23.082,15.79ZM15.5,22.565A13.5,13.5,0,0,0,18.472,29h.056A13.5,13.5,0,0,0,21.5,22.565Zm7.372-8.129h5.309A10.516,10.516,0,0,0,20.4,8.173,16.16,16.16,0,0,1,22.875,14.435ZM21.718,15.79H15.283a21.727,21.727,0,0,0,0,5.419h6.435A21.725,21.725,0,0,0,21.718,15.79Zm-7.593,6.774H8.816A10.516,10.516,0,0,0,16.6,28.828,16.162,16.162,0,0,1,14.125,22.565Zm8.751,0A16.161,16.161,0,0,1,20.4,28.828a10.516,10.516,0,0,0,7.781-6.263ZM21.5,14.435A13.5,13.5,0,0,0,18.528,8h-.056A13.5,13.5,0,0,0,15.5,14.435ZM8.354,15.79a10.555,10.555,0,0,0,0,5.419h5.565a22.987,22.987,0,0,1,0-5.419Zm5.771-1.355A16.161,16.161,0,0,1,16.6,8.173a10.516,10.516,0,0,0-7.781,6.263Z" transform="translate(-8 -8)"/></svg>