<svg xmlns="http://www.w3.org/2000/svg" viewBox="0 0 21 21"><defs><style>.a{fill:#3e3ea2;}</style></defs><path class="a" d="M29,18.5A10.5,10.5,0,1,1,18.5,8,10.5,10.5,0,0,1,29,18.5Zm-2.032,0v-.012l-1.1.963L23.21,16.974l.7-3.571,1.452.13a8.486,8.486,0,0,0-4.264-3.1l.578,1.352L18.5,13.546l-3.173-1.758.578-1.352a8.487,8.487,0,0,0-4.264,3.1L13.1,13.4l.686,3.571-2.654,2.477-1.1-.963V18.5a8.4,8.4,0,0,0,1.629,5l.326-1.435,3.6.442,1.537,3.3-1.266.753a8.545,8.545,0,0,0,5.274,0L19.871,25.8l1.537-3.3,3.6-.442.326,1.435A8.4,8.4,0,0,0,26.968,18.5Zm-10.5,2.946L15.2,17.58l3.3-2.393,3.3,2.393-1.254,3.866Z" transform="translate(-8 -8)"/></svg>