<svg xmlns="http://www.w3.org/2000/svg" viewBox="0 0 66 51"><defs><style>.a{fill:#a03c19;}.b{fill:#cd5014;}.c{fill:#6c9baa;}.d{fill:#ffb69e;}.e{fill:#414b82;}.f{fill:#55c7a6;}.g{fill:#b05f3f;}.h{fill:#692823;}.i{fill:#ba6746;}.j{fill:#39ae96;}.k{fill:#a5c8cd;}</style></defs><g transform="translate(0 -11.34)"><g transform="translate(2.134 48.733)"><path class="a" d="M21.349,383.642a1.153,1.153,0,0,1-.655-1.487l4.3-11.306a1.14,1.14,0,0,1,1.477-.659,1.153,1.153,0,0,1,.655,1.487l-4.3,11.306A1.14,1.14,0,0,1,21.349,383.642Z" transform="translate(-20.617 -370.113)"/><path class="a" d="M142.972,382.983l-4.356-11.306a1.153,1.153,0,0,1,.655-1.487,1.14,1.14,0,0,1,1.477.659l4.356,11.306a1.153,1.153,0,0,1-.655,1.487A1.14,1.14,0,0,1,142.972,382.983Z" transform="translate(-126.332 -370.113)"/></g><path class="b" d="M19.957,212.063a1.549,1.549,0,0,1-1.544,1.554H4.858a1.546,1.546,0,0,1-1.515-1.255L.029,195.39a1.544,1.544,0,1,1,3.03-.6l3.069,15.719H18.413A1.549,1.549,0,0,1,19.957,212.063Z" transform="translate(0 -163.206)"/><path class="c" d="M75.414,189.333a2.584,2.584,0,0,0-.262-2.389,2.547,2.547,0,0,0-2.11-1.125h-5.87l.164-10.473A3.574,3.574,0,0,0,63.8,171.7l-2.884,0a3.974,3.974,0,0,0-3.964,3.993l.02,11.741a3.6,3.6,0,0,0,1.056,2.538,3.5,3.5,0,0,0,2.531.988h6.532v0h2.2l-4.556,11.515a2.575,2.575,0,0,0,1.434,3.334,2.546,2.546,0,0,0,3.311-1.444Z" transform="translate(-51.056 -143.646)"/><ellipse class="d" cx="4.693" cy="4.725" rx="4.693" ry="4.725" transform="translate(9.239 16.921)"/><path class="e" d="M75.883,309.76a2.581,2.581,0,0,0-.441-1.471,2.547,2.547,0,0,0-2.11-1.125h-5.87l-10.186,1.9a3.6,3.6,0,0,0,1.043,2.253,3.47,3.47,0,0,0,2.334.985h8.926l-4.556,11.515a2.554,2.554,0,1,0,4.745,1.891L75.7,310.678A2.586,2.586,0,0,0,75.883,309.76Z" transform="translate(-51.346 -264.991)"/><g transform="translate(13)"><g transform="translate(21.309 41.831)"><path class="a" d="M206.581,316.822a1.151,1.151,0,0,1-.654-1.484l4.1-10.717a1.138,1.138,0,0,1,1.474-.658,1.15,1.15,0,0,1,.654,1.484l-4.1,10.717A1.138,1.138,0,0,1,206.581,316.822Z" transform="translate(-205.85 -303.885)"/><path class="a" d="M330.1,316.166l-4.105-10.717a1.15,1.15,0,0,1,.654-1.484,1.138,1.138,0,0,1,1.474.658l4.1,10.717a1.15,1.15,0,0,1-.654,1.484A1.138,1.138,0,0,1,330.1,316.166Z" transform="translate(-313.489 -303.887)"/></g><path class="e" d="M271.7,119.279h-6.512l2.93-10.3A3.105,3.105,0,0,0,266,105.145a7.927,7.927,0,0,0-9.952,6.083l-1.308,6.476a5.488,5.488,0,0,0,5.68,6.579h7.622l-4.282,10.9a2.5,2.5,0,0,0,1.393,3.24,2.474,2.474,0,0,0,3.218-1.4L274,122.694A2.5,2.5,0,0,0,271.7,119.279Z" transform="translate(-228.277 -83.749)"/><path class="f" d="M255.216,121.26a5.52,5.52,0,0,1-.472-3.559l1.308-6.476A7.927,7.927,0,0,1,266,105.143a3.1,3.1,0,0,1,2.113,3.836l-2.93,10.3Z" transform="translate(-228.276 -83.748)"/><ellipse class="g" cx="4.561" cy="4.592" rx="4.561" ry="4.592" transform="translate(35.902 11.34)"/><path class="b" d="M208.819,156.81H196.846a1.713,1.713,0,0,1-1.678-1.39l-3.136-16.062a1.711,1.711,0,1,1,3.357-.664l2.864,14.672h10.566a1.722,1.722,0,0,1,0,3.444Z" transform="translate(-172.125 -112.835)"/><path class="h" d="M388.054,215.233h-11.9a1.148,1.148,0,0,1,0-2.3h11.9a1.148,1.148,0,0,1,0,2.3Z" transform="translate(-336.194 -180.585)"/><path class="i" d="M337.139,88.674l-6.6-5.977a2.091,2.091,0,0,1-.154-2.938,2.056,2.056,0,0,1,2.918-.155l3.722,3.373.918-6.383a2.067,2.067,0,1,1,4.09.6l-1.472,10.235A2.064,2.064,0,0,1,337.139,88.674Z" transform="translate(-295.715 -56.856)"/><path class="j" d="M336.22,118.847l-2.912-2.639a2.057,2.057,0,0,0-2.918.155,2.09,2.09,0,0,0,.154,2.938l2.955,2.678Z" transform="translate(-295.714 -93.459)"/><path class="h" d="M179.537,278.64h-11.92a1.15,1.15,0,0,1,0-2.3h11.92a1.15,1.15,0,0,1,0,2.3Z" transform="translate(-149.242 -237.38)"/></g><path class="d" d="M92.439,52.58a2.217,2.217,0,0,1,1.021-2.952l7.481-3.641,2.739-10.166a2.2,2.2,0,1,1,4.238,1.158l-3,11.139a2.207,2.207,0,0,1-1.163,1.411l-8.383,4.08A2.189,2.189,0,0,1,92.439,52.58Z" transform="translate(-82.673 -20.467)"/><path class="k" d="M96.859,166.448l-3.4,1.654a2.217,2.217,0,0,0-1.021,2.952,2.189,2.189,0,0,0,2.932,1.028l3.378-1.644Z" transform="translate(-82.673 -138.942)"/></g></svg>