<svg xmlns="http://www.w3.org/2000/svg" viewBox="0 0 48 51"><defs><style>.a{opacity:0.7;}.b{fill:#ffb69e;}.c{fill:#f2a085;}.d{fill:#1b224a;}.e{fill:#252d5c;}.f{fill:#fff;}.g{fill:#ff3c3c;}.h{fill:#c8e6eb;}.i{fill:#414b82;}.j{fill:#ba6746;}.k{fill:#80391b;}</style></defs><g class="a" transform="translate(-16.386)"><path class="b" d="M158.178,329.091V344.88a2.444,2.444,0,0,1-4.888,0V329.091Z" transform="translate(-123.192 -296.31)"/><path class="c" d="M98.842,329.091V344.88a2.444,2.444,0,0,1-4.888,0V329.091Z" transform="translate(-69.799 -296.31)"/><path class="d" d="M39.8,109.093c-.882-2.437-1.306-3.632-1.892-5.325-.93-2.692-2.478-4.083-4.6-4.136v0H26.043c-2.18,0-3.764,1.386-4.709,4.121-1.465,4.238-4.79,13.286-4.823,13.377a2.035,2.035,0,0,0,3.825,1.391c.028-.077,4.047-11.167,4.047-11.167l-2.893,15.082a1.128,1.128,0,0,0,1.111,1.34H36.54a1.129,1.129,0,0,0,1.111-1.34l-1.716-9.007,3.041-1.931A2.028,2.028,0,0,0,39.8,109.093Zm-5.085-2.068.68,1.9-.283.179Z" transform="translate(0 -89.705)"/><path class="e" d="M16.511,117.129c.033-.091,3.359-9.139,4.823-13.377.945-2.734,2.529-4.121,4.709-4.121H29.57v24.145H22.6a1.128,1.128,0,0,1-1.111-1.34l2.893-15.082s-4.019,11.089-4.047,11.167a2.035,2.035,0,0,1-3.825-1.391Z" transform="translate(0 -89.707)"/><path class="f" d="M122.98,99.631l-3.136,8.185-3.137-8.185Z" transform="translate(-90.273 -89.707)"/><path class="g" d="M133.466,102.416l.7-1.26-.6-1.086a.3.3,0,0,1,.262-.44h2.013a.3.3,0,0,1,.262.44l-.6,1.09.695,1.257a.838.838,0,0,1,.088.571l-.429,2.164-1.021,2.664-1.022-2.665-.431-2.163A.838.838,0,0,1,133.466,102.416Z" transform="translate(-105.258 -89.706)"/><g transform="translate(16.386 0)"><ellipse class="b" cx="4.221" cy="4.198" rx="4.221" ry="4.198" transform="translate(8.964 0)"/><path class="b" d="M20.337,276.684a2.035,2.035,0,0,1-3.825-1.391C16.516,275.282,20.346,276.659,20.337,276.684Z" transform="translate(-16.387 -247.872)"/></g><path class="f" d="M21.811,266.937l-3.829-1.392-.352.971,3.826,1.391Z" transform="translate(-1.119 -239.094)"/><path class="h" d="M92.737,172.759l-5.5,1.332a1.272,1.272,0,0,1-1.536-.929l-1.841-7.513a1.264,1.264,0,0,1,.934-1.528l5.5-1.332a1.272,1.272,0,0,1,1.536.929l1.841,7.513A1.264,1.264,0,0,1,92.737,172.759Z" transform="translate(-60.686 -146.541)"/><path class="d" d="M143.169,189.54a2.04,2.04,0,0,1-1.106-3.762l6.937-4.4a2.059,2.059,0,0,1,2.834.622,2.034,2.034,0,0,1-.626,2.819l-6.937,4.4A2.053,2.053,0,0,1,143.169,189.54Z" transform="translate(-112.236 -163.019)"/><path class="f" d="M142.939,222.9l-.876.556a2.034,2.034,0,0,0-.626,2.819,2.059,2.059,0,0,0,2.834.622l.868-.551Z" transform="translate(-112.236 -200.7)"/><path class="b" d="M142.064,228.486a2.034,2.034,0,0,0-.626,2.819,2.059,2.059,0,0,0,2.834.622Z" transform="translate(-112.237 -205.727)"/><g transform="translate(48.349 26.794)"><path class="i" d="M396.639,293.2a2.429,2.429,0,0,1-2.436-2.422V271.411a2.436,2.436,0,0,1,4.871,0v19.362A2.429,2.429,0,0,1,396.639,293.2Z" transform="translate(-388.323 -268.989)"/><path class="i" d="M337.934,293.2a2.429,2.429,0,0,1-2.436-2.422V271.411a2.436,2.436,0,0,1,4.871,0v19.362A2.429,2.429,0,0,1,337.934,293.2Z" transform="translate(-335.498 -268.989)"/></g><path class="e" d="M306.718,103.418a4.839,4.839,0,0,0-4.878-4.753h-10.9a4.839,4.839,0,0,0-4.878,4.753v14.84a2.03,2.03,0,0,0,4.06,0V103.435a.815.815,0,0,1,.819-.733h.073v15.351h10.751V102.7h.072a.815.815,0,0,1,.819.733v14.823a2.03,2.03,0,0,0,4.06,0v-14.83S306.718,103.421,306.718,103.418Z" transform="translate(-242.668 -88.837)"/><path class="d" d="M399.448,103.418a4.839,4.839,0,0,0-4.878-4.753h-5.453l.005,19.388H394.5V102.7h.073a.815.815,0,0,1,.819.733v14.823a2.03,2.03,0,0,0,4.06,0v-14.83S399.449,103.421,399.448,103.418Z" transform="translate(-335.398 -88.837)"/><ellipse class="j" cx="4.207" cy="4.183" rx="4.207" ry="4.183" transform="translate(49.517 0.173)"/><g transform="translate(59.651 28.395)"><path class="k" d="M452.329,339.971h-3.237a.747.747,0,0,1-.749-.745V331.02a.747.747,0,0,1,.749-.745h3.237a.747.747,0,0,1,.749.745v8.207A.747.747,0,0,1,452.329,339.971Z" transform="translate(-448.343 -325.772)"/><rect class="k" width="2.365" height="5.056" transform="translate(1.18)"/></g><g transform="translate(43.397 28.425)"><path class="f" d="M286.058,285.367v1.041a2.03,2.03,0,0,0,4.06,0v-1.041Z" transform="translate(-286.058 -285.367)"/><path class="f" d="M451.73,285.367v1.041a2.03,2.03,0,0,0,4.06,0v-1.041Z" transform="translate(-435.136 -285.367)"/></g><g transform="translate(43.397 29.414)"><path class="j" d="M286.058,295.3v.052a2.03,2.03,0,0,0,4.06,0V295.3Z" transform="translate(-286.058 -295.297)"/><path class="j" d="M451.73,295.3v.052a2.03,2.03,0,0,0,4.06,0V295.3Z" transform="translate(-435.136 -295.297)"/></g><path class="f" d="M358.241,98.665l3.1,8.083,3.1-8.083Z" transform="translate(-307.614 -88.837)"/><path class="g" d="M377.507,101.428l-.691-1.251.6-1.079a.292.292,0,0,0,0-.291.3.3,0,0,0-.254-.144h-1.988a.3.3,0,0,0-.254.144.292.292,0,0,0,0,.291l.6,1.082-.689,1.247a.828.828,0,0,0-.087.564l.431,2.144,1,2.611,1-2.62.43-2.135A.828.828,0,0,0,377.507,101.428Z" transform="translate(-322.436 -88.836)"/></g></svg>