<svg xmlns="http://www.w3.org/2000/svg" viewBox="0 0 21 21"><defs><style>.a{fill:#3e3ea2;}</style></defs><path class="a" d="M17.063,1.969V19.031A1.969,1.969,0,0,1,15.094,21H5.906a1.969,1.969,0,0,1-1.969-1.969V1.969A1.969,1.969,0,0,1,5.906,0h9.188A1.969,1.969,0,0,1,17.063,1.969ZM21,4.348V4.84a.246.246,0,0,1-.246.246h-.738v.246a.246.246,0,0,1-.246.246H18.047V3.609H19.77a.246.246,0,0,1,.246.246V4.1h.738A.246.246,0,0,1,21,4.348Zm0,3.938v.492a.246.246,0,0,1-.246.246h-.738V9.27a.246.246,0,0,1-.246.246H18.047V7.547H19.77a.246.246,0,0,1,.246.246v.246h.738A.246.246,0,0,1,21,8.285Zm0,3.938v.492a.246.246,0,0,1-.246.246h-.738v.246a.246.246,0,0,1-.246.246H18.047V11.484H19.77a.246.246,0,0,1,.246.246v.246h.738A.246.246,0,0,1,21,12.223Zm0,3.938v.492a.246.246,0,0,1-.246.246h-.738v.246a.246.246,0,0,1-.246.246H18.047V15.422H19.77a.246.246,0,0,1,.246.246v.246h.738A.246.246,0,0,1,21,16.16ZM1.23,15.422H2.953v1.969H1.23a.246.246,0,0,1-.246-.246V16.9H.246A.246.246,0,0,1,0,16.652V16.16a.246.246,0,0,1,.246-.246H.984v-.246a.246.246,0,0,1,.246-.246Zm0-3.937H2.953v1.969H1.23a.246.246,0,0,1-.246-.246v-.246H.246A.246.246,0,0,1,0,12.715v-.492a.246.246,0,0,1,.246-.246H.984V11.73a.246.246,0,0,1,.246-.246Zm0-3.937H2.953V9.516H1.23A.246.246,0,0,1,.984,9.27V9.023H.246A.246.246,0,0,1,0,8.777V8.285a.246.246,0,0,1,.246-.246H.984V7.793a.246.246,0,0,1,.246-.246Zm0-3.937H2.953V5.578H1.23a.246.246,0,0,1-.246-.246V5.086H.246A.246.246,0,0,1,0,4.84V4.348A.246.246,0,0,1,.246,4.1H.984V3.855a.246.246,0,0,1,.246-.246Z"/></svg>