<svg xmlns="http://www.w3.org/2000/svg" viewBox="0 0 14 17"><defs><style>.a{fill:#3e3ea2;}</style></defs><g transform="translate(-13 -11.5)"><path class="a" d="M24.6,28.5H16.4A2.433,2.433,0,0,1,14,26.1V13.9a2.433,2.433,0,0,1,2.4-2.4h8.2A2.433,2.433,0,0,1,27,13.9V26.1A2.433,2.433,0,0,1,24.6,28.5Zm-8.2-16A1.367,1.367,0,0,0,15,13.9V26.1a1.367,1.367,0,0,0,1.4,1.4h8.2A1.367,1.367,0,0,0,26,26.1V13.9a1.367,1.367,0,0,0-1.4-1.4Z"/><path class="a" d="M15.5,16.5h-2a.5.5,0,0,1,0-1h2a.5.5,0,0,1,0,1Z"/><path class="a" d="M15.5,21.8h-2a.5.5,0,1,1,0-1h2a.5.5,0,0,1,0,1Z"/><path class="a" d="M15.5,24.5h-2a.5.5,0,0,1,0-1h2a.5.5,0,0,1,0,1Z"/><path class="a" d="M15.5,19.2h-2a.5.5,0,0,1,0-1h2a.5.5,0,1,1,0,1Z"/><path class="a" d="M21.4,20.7a1.907,1.907,0,0,1-1.8-2,1.81,1.81,0,1,1,3.6,0A1.907,1.907,0,0,1,21.4,20.7Zm0-2.9a1.025,1.025,0,0,0,0,2,.915.915,0,0,0,.8-1C22.2,18.2,21.9,17.8,21.4,17.8Z"/><path class="a" d="M22.1,19.6h.1a1.9,1.9,0,0,1,1.9,1.9v1.2a.5.5,0,0,1-1,0V21.5a.9.9,0,0,0-.9-.9h-.1Z"/><path class="a" d="M20.8,20.6h-.1a.9.9,0,0,0-.9.9v1.2a.5.5,0,0,1-1,0V21.5a1.9,1.9,0,0,1,1.9-1.9h.1Z"/><rect class="a" width="1" height="16" transform="translate(16.4 12)"/></g></svg>