<svg xmlns="http://www.w3.org/2000/svg" viewBox="0 0 16 16"><defs><style>.a{fill:#3e3ea2;}</style></defs><g transform="translate(-11.477 -11.475)"><g transform="translate(11.477 11.475)"><path class="a" d="M22.912,27.475h0a4.2,4.2,0,0,1-2.378-.752,33.6,33.6,0,0,1-4.47-3.759,33.417,33.417,0,0,1-3.8-4.417c-1.427-1.88-.856-4.323,1.332-6.579a1.8,1.8,0,0,1,2.473,0L17.4,13.284a1.807,1.807,0,0,1,0,2.443l-.571.564c-.19.188-.1.47,0,.658A22.507,22.507,0,0,0,19.3,19.581a33.853,33.853,0,0,0,2.663,2.443.464.464,0,0,0,.666,0l.571-.564a1.8,1.8,0,0,1,2.473,0L27,22.776a1.807,1.807,0,0,1,0,2.443A5.388,5.388,0,0,1,22.912,27.475ZM14.828,12.438a1.363,1.363,0,0,0-.571.188c-1.9,1.88-2.283,3.853-1.236,5.357a32.04,32.04,0,0,0,3.709,4.323A32.221,32.221,0,0,0,21.1,25.971c1.522,1.034,3.519.658,5.421-1.222a.685.685,0,0,0,.19-.564,1.325,1.325,0,0,0-.19-.564L25.1,22.306a.876.876,0,0,0-1.141,0l-.571.564a1.454,1.454,0,0,1-1.9,0,24.23,24.23,0,0,1-2.758-2.537,36.259,36.259,0,0,1-2.568-2.725,1.411,1.411,0,0,1,0-1.88l.571-.564a.685.685,0,0,0,.19-.564,1.325,1.325,0,0,0-.19-.564L15.4,12.72A.826.826,0,0,0,14.828,12.438Z" transform="translate(-11.477 -11.475)"/></g></g></svg>