<svg xmlns="http://www.w3.org/2000/svg" viewBox="0 0 29 29"><defs><style>.a,.d{fill:none;}.a{stroke:#ff6262;}.b{fill:#ff6262;}.c{stroke:none;}</style></defs><g transform="translate(-1745 -1669)"><g class="a" transform="translate(1745 1669)"><circle class="c" cx="14.5" cy="14.5" r="14.5"/><circle class="d" cx="14.5" cy="14.5" r="14"/></g><path class="b" d="M14.4,5.523l-.469,8.892a.616.616,0,0,1-.6.585H5.676a.616.616,0,0,1-.6-.585L4.6,5.523a.606.606,0,1,1,1.209-.062l.438,8.308h6.515L13.2,5.462a.6.6,0,1,1,1.194.062ZM16,3.462a.612.612,0,0,1-.6.615H3.6a.615.615,0,0,1,0-1.231H6.93V1.462A.44.44,0,0,1,7.414,1h4.172a.44.44,0,0,1,.484.462V2.846H15.4A.612.612,0,0,1,16,3.462ZM7.988,2.846h3.023V2.077H7.988Zm.257,10h0a.572.572,0,0,0,.529-.585L8.623,5.615a.543.543,0,0,0-.544-.538.522.522,0,0,0-.514.554l.151,6.662A.554.554,0,0,0,8.245,12.846Zm2.494,0a.54.54,0,0,0,.529-.538l.151-6.646a.529.529,0,1,0-1.058-.031l-.151,6.646a.538.538,0,0,0,.529.569Z" transform="translate(1750 1676)"/></g></svg>