<svg xmlns="http://www.w3.org/2000/svg" viewBox="0 0 20 20"><defs><style>.a{fill:#45668e;}.b{fill:#fff;fill-rule:evenodd;}</style></defs><g transform="translate(-0.038 -0.001)"><path class="a" d="M10.033,20h.01a10,10,0,0,0,10-10v0a10,10,0,1,0-20,0v0a10,10,0,0,0,10,10"/><path class="b" d="M49.662,92.619h.758a.641.641,0,0,0,.346-.151.555.555,0,0,0,.1-.333s-.015-1.017.457-1.167,1.063.983,1.7,1.418a1.2,1.2,0,0,0,.843.257l1.694-.024s.886-.055.466-.751a5.664,5.664,0,0,0-1.259-1.457c-1.062-.986-.92-.826.36-2.531.779-1.039,1.091-1.672.993-1.944s-.666-.19-.666-.19l-1.907.012a.434.434,0,0,0-.246.043.533.533,0,0,0-.168.2,11.062,11.062,0,0,1-.7,1.487c-.849,1.442-1.189,1.518-1.328,1.429-.323-.209-.242-.838-.242-1.286,0-1.4.212-1.98-.413-2.131a3.267,3.267,0,0,0-.89-.089,4.115,4.115,0,0,0-1.582.162c-.217.106-.384.343-.282.357a.855.855,0,0,1,.563.283,1.839,1.839,0,0,1,.189.863s.112,1.645-.262,1.849c-.257.14-.61-.146-1.367-1.454a12.164,12.164,0,0,1-.681-1.411.567.567,0,0,0-.157-.213.787.787,0,0,0-.293-.118l-1.812.012s-.272.008-.372.126-.007.323-.007.323a20.62,20.62,0,0,0,3.025,4.992,4.352,4.352,0,0,0,3.146,1.433" transform="translate(-39.996 -78.681)"/></g></svg>