<svg xmlns="http://www.w3.org/2000/svg" viewBox="0 0 40 40"><defs><style>.a,.d{fill:none;}.a{stroke:#3e3ea2;}.b{fill:#3e3ea2;fill-rule:evenodd;}.c{stroke:none;}</style></defs><g transform="translate(-0.11 -0.002)"><g class="a" transform="translate(0.11 0.002)"><rect class="c" width="40" height="40" rx="3"/><rect class="d" x="0.5" y="0.5" width="39" height="39" rx="2.5"/></g><path class="b" d="M45.978,92.826h1.8a1.525,1.525,0,0,0,.824-.36,1.321,1.321,0,0,0,.248-.793s-.035-2.422,1.089-2.779c1.108-.351,2.531,2.341,4.039,3.376a2.86,2.86,0,0,0,2.007.612l4.033-.056s2.11-.13,1.109-1.789a13.48,13.48,0,0,0-3-3.469c-2.529-2.347-2.19-1.967.856-6.027,1.855-2.472,2.6-3.982,2.365-4.628-.221-.616-1.585-.454-1.585-.454l-4.541.028a1.031,1.031,0,0,0-.586.1,1.268,1.268,0,0,0-.4.487,26.372,26.372,0,0,1-1.677,3.54c-2.022,3.433-2.83,3.615-3.161,3.4-.769-.5-.577-2-.577-3.061,0-3.328.5-4.715-.983-5.074a7.784,7.784,0,0,0-2.119-.211,9.787,9.787,0,0,0-3.768.386c-.516.253-.915.816-.672.849a2.035,2.035,0,0,1,1.34.674,4.379,4.379,0,0,1,.449,2.055s.268,3.917-.624,4.4c-.612.334-1.452-.348-3.254-3.463a28.942,28.942,0,0,1-1.621-3.359,1.352,1.352,0,0,0-.374-.506,1.875,1.875,0,0,0-.7-.282l-4.315.028s-.648.018-.885.3c-.212.251-.017.769-.017.769s3.378,7.9,7.2,11.886a10.363,10.363,0,0,0,7.49,3.412" transform="translate(-26.192 -63.741)"/></g></svg>