<svg xmlns="http://www.w3.org/2000/svg" viewBox="0 0 40 40"><defs><style>.a,.d{fill:none;}.a{stroke:#3e3ea2;}.b{fill:#3e3ea2;}.c{stroke:none;}</style></defs><g transform="translate(-0.02 -0.116)"><g class="a" transform="translate(0.02 0.116)"><rect class="c" width="40" height="40" rx="3"/><rect class="d" x="0.5" y="0.5" width="39" height="39" rx="2.5"/></g><path class="b" d="M91.088,58.357H89.6c-2.34,0-4.609-1.707-4.609-5.976,0-4.447,2.128-6.261,4.29-6.261h1.809Zm2.34-14.513H89.385c-3.971,0-7.34,3.023-7.34,8.893a7.559,7.559,0,0,0,4.539,7.4l-5.425,9.817c-.177.321,0,.569.283.569H83.96a.4.4,0,0,0,.426-.248l4.929-9.64h1.774v9.64a.267.267,0,0,0,.247.248h2.2c.213,0,.284-.107.284-.284V44.2c0-.25-.142-.356-.39-.356" transform="translate(-68.289 -36.835)"/></g></svg>