<svg xmlns="http://www.w3.org/2000/svg" viewBox="0 0 15 15"><defs><style>.a{fill:#3e3ea2;}</style></defs><g transform="translate(-12.5 -11.95)"><g transform="translate(14.5 16.983)"><path class="a" d="M14.5,20.488V18.5A1.535,1.535,0,0,1,16,17h8a1.535,1.535,0,0,1,1.5,1.5v1.993Zm1-.5h9V18.5A.472.472,0,0,0,24,18H16a.472.472,0,0,0-.5.5Z" transform="translate(-14.5 -17)"/></g><g transform="translate(12.5 19.973)"><path class="a" d="M26.4,26.977H13.6a1.108,1.108,0,0,1-1.1-1.1V22.492A2.472,2.472,0,0,1,15,20H25a2.472,2.472,0,0,1,2.5,2.492V25.88A1.108,1.108,0,0,1,26.4,26.977ZM15,21a1.535,1.535,0,0,0-1.5,1.5V25.88a.1.1,0,0,0,.1.1H26.3a.1.1,0,0,0,.1-.1V22.492A1.535,1.535,0,0,0,24.9,21Z" transform="translate(-12.5 -20)"/></g><g transform="translate(19.5 14.99)"><path class="a" d="M19.5,17.492V15.5a.5.5,0,0,1,1,0v1.993Z" transform="translate(-19.5 -15)"/></g><g transform="translate(22.5 14.99)"><path class="a" d="M22.5,17.492V15.5a.5.5,0,0,1,1,0v1.993Z" transform="translate(-22.5 -15)"/></g><g transform="translate(16.5 14.99)"><path class="a" d="M16.5,17.492V15.5a.5.5,0,0,1,1,0v1.993Z" transform="translate(-16.5 -15)"/></g><g transform="translate(19.5 11.95)"><path class="a" d="M20,13a.4.4,0,0,1-.4-.2.365.365,0,0,1-.1-.3.6.6,0,0,1,.1-.4.484.484,0,0,1,.7,0,.517.517,0,0,1,.2.4c0,.1,0,.3-.1.3A.4.4,0,0,1,20,13Z" transform="translate(-19.5 -11.95)"/></g><g transform="translate(22.5 11.95)"><path class="a" d="M23,13a.4.4,0,0,1-.4-.2.365.365,0,0,1-.1-.3.6.6,0,0,1,.1-.4.484.484,0,0,1,.7,0,.517.517,0,0,1,.2.4c0,.2,0,.3-.1.3A.4.4,0,0,1,23,13Z" transform="translate(-22.5 -11.95)"/></g><g transform="translate(16.5 11.95)"><path class="a" d="M17,13a.4.4,0,0,1-.4-.2.365.365,0,0,1-.1-.3.6.6,0,0,1,.1-.4.484.484,0,0,1,.7,0,.517.517,0,0,1,.2.4c0,.2,0,.3-.1.3A.4.4,0,0,1,17,13Z" transform="translate(-16.5 -11.95)"/></g></g></svg>