<svg xmlns="http://www.w3.org/2000/svg" viewBox="0 0 30 30"><defs><style>.a{fill:#fff;}</style></defs><g transform="translate(-0.188 -0.001)"><path class="a" d="M15.01,30H15A15,15,0,0,1,4.395,4.394,15,15,0,0,1,25.607,25.612,14.885,14.885,0,0,1,15.01,30ZM13.064,16.213v8.308H16.41V16.213H19.2l.422-3.243H16.41V10.9c0-.946.275-1.577,1.611-1.577h1.711v-2.9a22.411,22.411,0,0,0-2.5-.131,4.181,4.181,0,0,0-3.018,1.1,4.361,4.361,0,0,0-1.154,3.187V12.97h-2.8v3.243Z" transform="translate(0.188)"/></g></svg>