<svg xmlns="http://www.w3.org/2000/svg" viewBox="0 0 30 30"><defs><style>.a{fill:#fff;}</style></defs><g transform="translate(-0.115 -0.002)"><path class="a" d="M15.006,30h-.012a15.013,15.013,0,1,1,.012,0ZM15,7.308c-2.039,0-2.324.007-3.168.048a5.633,5.633,0,0,0-1.873.355A3.949,3.949,0,0,0,7.715,9.962a5.76,5.76,0,0,0-.361,1.868c-.037.829-.041,1.112-.041,3.167s0,2.346.041,3.175a5.857,5.857,0,0,0,.361,1.868A3.846,3.846,0,0,0,8.6,21.4a3.9,3.9,0,0,0,1.359.89,5.8,5.8,0,0,0,1.873.356c.844.041,1.129.048,3.168.048s2.328-.007,3.174-.048a5.781,5.781,0,0,0,1.867-.356A3.862,3.862,0,0,0,21.4,21.4a3.8,3.8,0,0,0,.881-1.36,5.73,5.73,0,0,0,.363-1.868l0-.118,0-.034c.029-.709.041-1.063.041-3.022s-.012-2.306-.041-3.014l0-.035,0-.118a5.637,5.637,0,0,0-.363-1.868A3.724,3.724,0,0,0,21.4,8.6a3.781,3.781,0,0,0-1.361-.891,5.636,5.636,0,0,0-1.867-.355C17.324,7.314,17.041,7.308,15,7.308Zm0,14c-2.049,0-2.291-.008-3.105-.041A4.445,4.445,0,0,1,10.465,21a2.335,2.335,0,0,1-.881-.576A2.367,2.367,0,0,1,9,19.533a4.324,4.324,0,0,1-.258-1.423C8.7,17.3,8.693,17.051,8.693,15s.008-2.3.049-3.105A4.275,4.275,0,0,1,9,10.462a2.364,2.364,0,0,1,.584-.884A2.323,2.323,0,0,1,10.465,9a4.041,4.041,0,0,1,1.43-.267C12.709,8.7,12.955,8.7,15,8.7s2.293.008,3.1.041A4.03,4.03,0,0,1,19.533,9a2.419,2.419,0,0,1,.891.574,2.473,2.473,0,0,1,.574.884,4.314,4.314,0,0,1,.26,1.43c.041.808.047,1.058.047,3.105s-.006,2.3-.047,3.113A4.309,4.309,0,0,1,21,19.533a2.4,2.4,0,0,1-.574.889,2.438,2.438,0,0,1-.891.576,4.42,4.42,0,0,1-1.43.267C17.293,21.3,17.049,21.306,15,21.306Zm0-10.257A3.951,3.951,0,1,0,18.953,15,3.95,3.95,0,0,0,15,11.049ZM19.1,9.97a.923.923,0,1,0,.922.923A.924.924,0,0,0,19.1,9.97ZM15,17.563A2.565,2.565,0,1,1,17.564,15,2.565,2.565,0,0,1,15,17.563Z" transform="translate(0.115 0.002)"/></g></svg>