<svg xmlns="http://www.w3.org/2000/svg" viewBox="0 0 30 29.992"><defs><style>.a{fill:#fff;}</style></defs><g transform="translate(-0.227 -0.066)"><path class="a" d="M15.006,29.992h-.014a15,15,0,1,1,.014,0Zm-.129-10.725h0l3.715,2.743a1.228,1.228,0,0,0,.6.185c.381,0,.633-.277.748-.822L22.258,9.86a1.049,1.049,0,0,0-.074-.911.566.566,0,0,0-.461-.205,1.125,1.125,0,0,0-.449.108l-14.248,5.4c-.436.128-.6.413-.6.639a.57.57,0,0,0,.42.541l3.564,1.118,1.371,4.189c.17.477.314.631.584.631h.025c.271,0,.387-.1.662-.348l.031-.029c.281-.266.684-.653,1.24-1.191l.551-.53Zm-2.525,1.241-1.377-4.217,8.119-5.1a.5.5,0,0,1,.271-.1.137.137,0,0,1,.135.079.261.261,0,0,1-.064.264L12.7,17.492l-.348,3.017Z" transform="translate(0.227 0.066)"/></g></svg>