<svg xmlns="http://www.w3.org/2000/svg" viewBox="0 0 30 30"><defs><style>.a{fill:#fff;}</style></defs><path class="a" d="M18.724,5.157a15,15,0,1,0,15,15A15,15,0,0,0,18.724,5.157ZM26.28,17.133c.008.162.011.325.011.489A10.752,10.752,0,0,1,9.74,26.68a7.731,7.731,0,0,0,.9.052,7.584,7.584,0,0,0,4.695-1.618,3.786,3.786,0,0,1-3.531-2.626,3.692,3.692,0,0,0,.711.068,3.757,3.757,0,0,0,1-.132,3.783,3.783,0,0,1-3.033-3.706c0-.016,0-.032,0-.049a3.767,3.767,0,0,0,1.712.473,3.785,3.785,0,0,1-1.17-5.048,10.732,10.732,0,0,0,7.792,3.949A3.783,3.783,0,0,1,25.256,14.6a7.551,7.551,0,0,0,2.4-.917,3.791,3.791,0,0,1-1.663,2.091,7.558,7.558,0,0,0,2.172-.6A7.637,7.637,0,0,1,26.28,17.133Z" transform="translate(-3.723 -5.157)"/></svg>